<svg width="164" height="46" viewBox="0 0 164 46" fill="none" xmlns="http://www.w3.org/2000/svg">
<g filter="url(#filter0_d_6_18)">
<path d="M27.3774 23.5611C27.3774 24.5056 27.1357 25.3005 26.6524 25.9458C26.169 26.5755 25.5142 27.0556 24.6878 27.3861C23.8771 27.7167 22.9884 27.8819 22.0217 27.8819H14V11.1181H22.8871C23.6666 11.1181 24.337 11.3306 24.8983 11.7556C25.4752 12.1648 25.9118 12.7 26.208 13.3611C26.5198 14.0065 26.6757 14.6833 26.6757 15.3917C26.6757 16.1944 26.4731 16.9579 26.0677 17.6819C25.6623 18.406 25.0698 18.9412 24.2903 19.2875C25.2413 19.5708 25.9897 20.0824 26.5354 20.8222C27.0967 21.562 27.3774 22.475 27.3774 23.5611ZM24.1266 22.9472C24.1266 22.5222 24.0408 22.1444 23.8693 21.8139C23.6978 21.4676 23.4639 21.2 23.1677 21.0111C22.8871 20.8065 22.5596 20.7042 22.1854 20.7042H17.2274V25.1194H22.0217C22.4115 25.1194 22.7623 25.025 23.0741 24.8361C23.4016 24.6315 23.6588 24.3639 23.8459 24.0333C24.033 23.7028 24.1266 23.3407 24.1266 22.9472ZM17.2274 13.9042V18.1306H21.5306C21.8892 18.1306 22.2166 18.044 22.5129 17.8708C22.8091 17.6977 23.043 17.4537 23.2145 17.1389C23.4016 16.8241 23.4951 16.4463 23.4951 16.0056C23.4951 15.5806 23.4094 15.2106 23.2379 14.8958C23.0819 14.581 22.8637 14.337 22.583 14.1639C22.318 13.9907 22.0139 13.9042 21.6709 13.9042H17.2274Z" fill="white"/>
<path d="M34.2656 12.4315C34.5539 11.6427 35.3043 11.1181 36.1441 11.1181H36.6197C37.4604 11.1181 38.2113 11.6438 38.499 12.4338L43.3602 25.7845C43.7313 26.8038 42.9765 27.8819 41.8917 27.8819V27.8819C41.2374 27.8819 40.6524 27.4744 40.4257 26.8606L39.2594 23.7028H33.4594L32.3124 26.8561C32.0884 27.472 31.503 27.8819 30.8476 27.8819V27.8819C29.7648 27.8819 29.0119 26.8051 29.3836 25.7881L34.2656 12.4315ZM38.6747 21.4125L36.3828 14.4944L33.9973 21.4125H38.6747Z" fill="white"/>
<path d="M48.4458 27.8819C47.4522 27.8819 46.6468 27.0765 46.6468 26.0829V12.7318C46.6468 11.8405 47.3692 11.1181 48.2605 11.1181V11.1181C49.1517 11.1181 49.8742 11.8405 49.8742 12.7318V25.025H56.9118C57.7007 25.025 58.3402 25.6645 58.3402 26.4535V26.4535C58.3402 27.2424 57.7007 27.8819 56.9118 27.8819H48.4458Z" fill="white"/>
<path d="M76.1608 27.8819C75.2695 27.8819 74.5471 27.1595 74.5471 26.2682V16.8792L70.7057 24.2732C70.4507 24.7642 69.9435 25.0722 69.3902 25.0722V25.0722C68.837 25.0722 68.3298 24.7642 68.0747 24.2732L64.2334 16.8792V26.2682C64.2334 27.1595 63.5109 27.8819 62.6197 27.8819V27.8819C61.7285 27.8819 61.006 27.1595 61.006 26.2682V13.1181C61.006 12.0135 61.9014 11.1181 63.006 11.1181H63.2475C63.9965 11.1181 64.6828 11.5366 65.0256 12.2025L69.3785 20.6569L73.7765 12.1957C74.1206 11.5335 74.8048 11.1181 75.5511 11.1181H75.7745C76.879 11.1181 77.7745 12.0135 77.7745 13.1181V26.2682C77.7745 27.1595 77.052 27.8819 76.1608 27.8819V27.8819Z" fill="white"/>
<path d="M89.0291 28C87.813 28 86.706 27.7639 85.7081 27.2917C84.7259 26.8194 83.8761 26.1819 83.1589 25.3792C82.4573 24.5606 81.9116 23.6477 81.5219 22.6403C81.1321 21.6171 80.9372 20.5704 80.9372 19.5C80.9372 18.3824 81.1399 17.3199 81.5452 16.3125C81.9662 15.2894 82.5353 14.3843 83.2525 13.5972C83.9853 12.7944 84.8428 12.1648 85.8251 11.7083C86.8229 11.2361 87.9143 11 89.0992 11C90.2998 11 91.3912 11.244 92.3734 11.7319C93.3713 12.2199 94.221 12.8731 94.9226 13.6917C95.6242 14.5102 96.1699 15.4231 96.5597 16.4306C96.9495 17.438 97.1444 18.4769 97.1444 19.5472C97.1444 20.6491 96.9417 21.7116 96.5363 22.7347C96.1309 23.7421 95.5618 24.6472 94.829 25.45C94.1118 26.237 93.2543 26.8588 92.2565 27.3153C91.2742 27.7718 90.1984 28 89.0291 28ZM84.2114 19.5C84.2114 20.2241 84.3205 20.9245 84.5388 21.6014C84.7571 22.2782 85.0689 22.8843 85.4743 23.4194C85.8952 23.9389 86.4019 24.356 86.9944 24.6708C87.6025 24.9699 88.2885 25.1194 89.0525 25.1194C89.832 25.1194 90.5258 24.962 91.1339 24.6472C91.742 24.3167 92.2487 23.8838 92.6541 23.3486C93.0594 22.7977 93.3635 22.1917 93.5661 21.5306C93.7844 20.8537 93.8936 20.1769 93.8936 19.5C93.8936 18.7759 93.7766 18.0833 93.5428 17.4222C93.3245 16.7454 93.0049 16.1472 92.5839 15.6278C92.1785 15.0926 91.6718 14.6755 91.0637 14.3764C90.4713 14.0616 89.8009 13.9042 89.0525 13.9042C88.2573 13.9042 87.5557 14.0694 86.9476 14.4C86.3552 14.7148 85.8562 15.1398 85.4509 15.675C85.0455 16.2102 84.7337 16.8083 84.5154 17.4694C84.3127 18.1306 84.2114 18.8074 84.2114 19.5Z" fill="white"/>
<path d="M101.935 27.8819C101.044 27.8819 100.322 27.1595 100.322 26.2682V13.1181C100.322 12.0135 101.217 11.1181 102.322 11.1181H107.665C108.429 11.1181 109.131 11.2755 109.77 11.5903C110.425 11.9051 110.986 12.3301 111.454 12.8653C111.937 13.4005 112.304 13.9986 112.553 14.6597C112.818 15.3208 112.951 15.9977 112.951 16.6903C112.951 17.3986 112.826 18.0833 112.576 18.7444C112.343 19.3898 112 19.9565 111.547 20.4444C111.095 20.9324 110.565 21.3102 109.957 21.5778L112.357 25.5706C112.968 26.5874 112.235 27.8819 111.049 27.8819V27.8819C110.516 27.8819 110.022 27.6039 109.745 27.1486L106.777 22.2625H103.549V26.2682C103.549 27.1595 102.827 27.8819 101.935 27.8819V27.8819ZM103.549 19.4056H107.595C108 19.4056 108.359 19.2875 108.671 19.0514C108.983 18.7995 109.232 18.469 109.419 18.0597C109.606 17.6505 109.7 17.194 109.7 16.6903C109.7 16.1551 109.591 15.6907 109.372 15.2972C109.154 14.888 108.874 14.5653 108.531 14.3292C108.203 14.0931 107.845 13.975 107.455 13.975H103.549V19.4056Z" fill="white"/>
<path d="M140.106 27.8819C139.112 27.8819 138.307 27.0765 138.307 26.0829V12.7318C138.307 11.8405 139.029 11.1181 139.92 11.1181V11.1181C140.811 11.1181 141.534 11.8405 141.534 12.7318V25.025H148.572C149.36 25.025 150 25.6645 150 26.4535V26.4535C150 27.2424 149.36 27.8819 148.572 27.8819H140.106Z" fill="white"/>
<path d="M115.763 21.538L122.034 12.7809C122.835 11.6631 124.125 11 125.5 11C126.875 11 128.165 11.6631 128.966 12.7809L135.237 21.538C135.974 22.5677 135.238 24 133.972 24C133.467 24 132.993 23.755 132.702 23.3428L126.316 14.3201C125.918 13.757 125.082 13.757 124.684 14.3201L118.298 23.3428C118.007 23.755 117.533 24 117.028 24C115.762 24 115.026 22.5677 115.763 21.538Z" fill="white"/>
<path d="M120 12V18" stroke="white" stroke-width="3" stroke-linecap="round"/>
</g>
<defs>
<filter id="filter0_d_6_18" x="0" y="0.5" width="164" height="45.5" filterUnits="userSpaceOnUse" color-interpolation-filters="sRGB">
<feFlood flood-opacity="0" result="BackgroundImageFix"/>
<feColorMatrix in="SourceAlpha" type="matrix" values="0 0 0 0 0 0 0 0 0 0 0 0 0 0 0 0 0 0 127 0" result="hardAlpha"/>
<feOffset dy="4"/>
<feGaussianBlur stdDeviation="7"/>
<feComposite in2="hardAlpha" operator="out"/>
<feColorMatrix type="matrix" values="0 0 0 0 0 0 0 0 0 0 0 0 0 0 0 0 0 0 0.15 0"/>
<feBlend mode="normal" in2="BackgroundImageFix" result="effect1_dropShadow_6_18"/>
<feBlend mode="normal" in="SourceGraphic" in2="effect1_dropShadow_6_18" result="shape"/>
</filter>
</defs>
</svg>
