<svg width="32" height="26" viewBox="0 0 32 32" fill="none" xmlns="http://www.w3.org/2000/svg">
<path d="M27.745 9.65625C26.864 7.45312 24.339 7.445 23.4515 9.65625C19.1015 20.55 19.2465 20.025 19.2465 21C19.2465 23.7581 22.109 26 25.6465 26C29.184 26 32.0015 23.7575 32.0015 21C31.955 19.9937 32.07 20.4563 27.745 9.65625ZM21.955 20L25.553 11L29.1615 20H21.955ZM12.8 21C12.8 19.9925 12.8688 20.4531 8.544 9.65625C7.663 7.45312 5.138 7.445 4.25049 9.65625C-0.0995121 20.55 0.0454883 20.025 0.0454883 21C0.0454883 23.7581 2.90799 26 6.4005 26C9.893 26 12.8 23.7562 12.8 21ZM6.395 11L10.005 20H2.79799L6.395 11ZM24.755 28H17.6V18.5V9.58125C18.775 8.9375 19.655 7.6125 19.92 6H25.6C26.4835 6 27.155 5.10438 27.155 4C27.155 2.89562 26.4385 2 25.6 2H19.18C18.449 0.78875 17.305 0 15.999 0C14.693 0 13.505 0.78875 12.82 2H6.4C5.515 2 4.8 2.89562 4.8 4C4.8 5.10438 5.515 6 6.355 6H12.035C12.2975 7.60938 13.1785 8.9375 14.3535 9.57812V28H7.2C5.8745 28 4.7995 29.3431 4.7995 31C4.7995 31.5523 5.15775 32 5.5995 32H26.3995C26.8413 32 27.1995 31.5523 27.1995 31C27.2 29.3438 26.125 28 24.755 28Z" fill="#FBC24C"/>
</svg>
