<svg width="310" height="200" viewBox="0 0 263 118" fill="none" xmlns="http://www.w3.org/2000/svg">
<rect y="79" width="263" height="39" rx="5" fill="#FBC24C" fill-opacity="0.21"/>
<path d="M132.361 36.5679L127.558 37.6512C127 40.807 127.102 53.6248 127.102 53.6248L126.689 65.8896C126.47 66.202 126.338 66.5663 126.305 66.9459C126.273 67.3255 126.341 67.707 126.503 68.052C126.665 68.3969 126.916 68.6932 127.229 68.9109C127.542 69.1287 127.908 69.2602 128.288 69.2923C128.669 69.3244 129.051 69.2559 129.397 69.0938C129.742 68.9316 130.039 68.6815 130.257 68.3686C130.475 68.0557 130.606 67.691 130.638 67.3113C130.67 66.9317 130.601 66.5503 130.438 66.2058L131.062 51.0794L132.361 36.5679Z" fill="#FFB6B6"/>
<path d="M126.81 24.2311C127.557 24.0716 128.329 24.0782 129.073 24.2505C129.817 24.4227 130.513 24.7563 131.113 25.2276C131.713 25.6989 132.201 26.2963 132.543 26.9772C132.885 27.6581 133.072 28.4059 133.092 29.1673L133.171 32.2679C133.171 32.2679 134.387 48.0709 133.269 51.1574L131.683 60.069L126.59 60.7175L126.339 51.3418C126.339 51.3418 127.844 40.9912 126.211 39.3117C125.211 38.2832 123.615 34.0237 122.814 30.3692C122.672 29.7044 122.662 29.0181 122.786 28.3496C122.91 27.6811 123.165 27.0435 123.536 26.4734C123.907 25.9032 124.387 25.4117 124.949 25.027C125.511 24.6422 126.143 24.3718 126.81 24.2311V24.2311Z" fill="#FBC24C"/>
<path d="M124.022 110.759C124.031 110.506 122.686 110.248 121.016 110.183C119.346 110.118 117.985 110.271 117.975 110.524C117.965 110.778 119.31 111.036 120.98 111.101C122.65 111.166 124.012 111.013 124.022 110.759Z" fill="#E6E6E6"/>
<path d="M143.173 112.539C143.183 112.285 141.838 112.027 140.168 111.962C138.498 111.897 137.136 112.05 137.126 112.303C137.117 112.557 138.462 112.815 140.132 112.88C141.802 112.945 143.163 112.792 143.173 112.539Z" fill="#3F3D56"/>
<path d="M116.27 113.733C116.279 113.48 114.934 113.221 113.264 113.156C111.594 113.092 110.233 113.244 110.223 113.498C110.213 113.751 111.558 114.009 113.228 114.074C114.898 114.139 116.26 113.987 116.27 113.733Z" fill="#FF6584"/>
<path d="M136.924 116.604C136.934 116.351 135.588 116.093 133.918 116.028C132.249 115.963 130.887 116.116 130.877 116.369C130.867 116.623 132.213 116.881 133.883 116.946C135.552 117.011 136.914 116.858 136.924 116.604Z" fill="#FF6584"/>
<path d="M106.856 114.424C106.857 114.196 106.256 114.008 105.514 114.004C104.771 114.001 104.169 114.183 104.168 114.411C104.167 114.639 104.767 114.827 105.51 114.83C106.252 114.834 106.855 114.652 106.856 114.424Z" fill="#E6E6E6"/>
<path d="M114.287 116.134C114.288 115.906 113.687 115.718 112.944 115.715C112.202 115.711 111.599 115.893 111.598 116.121C111.597 116.349 112.198 116.537 112.94 116.541C113.683 116.544 114.285 116.362 114.287 116.134Z" fill="#E6E6E6"/>
<path d="M102.138 116.777C102.139 116.549 101.538 116.361 100.795 116.357C100.053 116.354 99.4504 116.536 99.4493 116.764C99.4482 116.992 100.049 117.18 100.791 117.183C101.534 117.187 102.136 117.005 102.138 116.777Z" fill="#3F3D56"/>
<path d="M127.678 113.854C127.679 113.626 127.078 113.438 126.336 113.435C125.594 113.431 124.991 113.613 124.99 113.841C124.989 114.069 125.59 114.257 126.332 114.261C127.074 114.264 127.677 114.082 127.678 113.854Z" fill="#E6E6E6"/>
<path d="M119.005 112.191C119.007 111.963 118.406 111.775 117.663 111.772C116.921 111.768 116.318 111.95 116.317 112.178C116.316 112.406 116.917 112.594 117.659 112.598C118.402 112.601 119.004 112.419 119.005 112.191Z" fill="#FF6584"/>
<path d="M133.423 111.271C133.424 111.043 132.823 110.855 132.081 110.851C131.338 110.848 130.736 111.03 130.734 111.258C130.733 111.486 131.334 111.674 132.077 111.677C132.819 111.681 133.422 111.499 133.423 111.271Z" fill="#3F3D56"/>
<path d="M122.466 116.213C122.467 115.985 121.866 115.797 121.124 115.793C120.381 115.79 119.779 115.972 119.778 116.2C119.776 116.428 120.377 116.616 121.12 116.619C121.862 116.623 122.465 116.441 122.466 116.213Z" fill="#3F3D56"/>
<path d="M131.387 42.7809L132.431 26.638C132.477 25.9542 132.791 25.316 133.305 24.8611C133.819 24.4061 134.491 24.171 135.178 24.2064V24.2064C135.532 24.2247 135.88 24.3149 136.199 24.4715C136.518 24.6281 136.801 24.8479 137.032 25.1174C137.263 25.3869 137.436 25.7005 137.542 26.0391C137.647 26.3777 137.683 26.7341 137.645 27.0867L136.045 43.822L135.502 54.0319C135.924 54.2366 136.273 54.5658 136.5 54.9748C136.728 55.3839 136.824 55.8529 136.775 56.3182C136.726 56.7836 136.535 57.2226 136.227 57.5757C135.919 57.9288 135.51 58.1789 135.055 58.2919C134.6 58.4049 134.121 58.3755 133.683 58.2075C133.246 58.0395 132.87 57.7412 132.609 57.3531C132.347 56.9649 132.211 56.5057 132.22 56.038C132.229 55.5702 132.382 55.1164 132.658 54.7384L131.387 42.7809Z" fill="#A0616A"/>
<path d="M131.145 30.2442C131.031 30.1199 130.961 29.9616 130.945 29.7937C130.93 29.6258 130.97 29.4575 131.06 29.3147C131.168 29.1365 131.217 28.9291 131.201 28.7217C131.197 28.6816 131.191 28.6418 131.182 28.6026C131.123 28.3674 131.122 28.1214 131.178 27.8856C131.235 27.6498 131.348 27.4311 131.507 27.2481C132.041 26.6535 132.322 25.7344 132.458 24.9111C132.555 24.0021 132.761 23.108 133.072 22.2484C133.594 21.038 134.774 19.985 136.311 20.5645C136.961 20.821 137.503 21.2933 137.845 21.9017C138.576 23.1642 138.531 24.6574 138.473 26.0854L138.773 25.5311C138.683 27.0897 138.91 28.6503 139.439 30.1194C139.095 30.0398 138.833 30.4959 138.933 30.8343C139.078 31.1575 139.305 31.4372 139.592 31.6456C139.916 31.9507 140.217 32.3974 139.886 32.8341C139.804 32.9363 139.702 33.0205 139.586 33.0814C139.47 33.1424 139.342 33.1787 139.212 33.1881C136.743 33.4185 134.253 33.1371 131.898 32.3615C131.375 32.189 130.816 31.9554 130.558 31.4699C130.3 30.9844 130.595 30.2168 131.145 30.2442Z" fill="#F2F2F2"/>
<path d="M152.732 112.576H155.585L156.942 101.599H152.732V112.576Z" fill="#A0616A"/>
<path d="M151.801 110.627L156.358 110.355V112.303L160.691 115.289C160.905 115.436 161.067 115.648 161.151 115.893C161.236 116.138 161.24 116.404 161.163 116.652C161.085 116.9 160.931 117.116 160.721 117.27C160.512 117.424 160.258 117.507 159.998 117.507H154.572L153.637 115.58L153.272 117.507H151.226L151.801 110.627Z" fill="#2F2E41"/>
<path d="M137.395 110.069L140.052 111.105L145.322 101.375L141.401 99.8457L137.395 110.069Z" fill="#A0616A"/>
<path d="M137.239 107.916L141.583 109.318L140.872 111.133L143.818 115.487C143.964 115.702 144.037 115.958 144.026 116.217C144.016 116.476 143.922 116.725 143.76 116.928C143.597 117.131 143.374 117.276 143.123 117.343C142.872 117.41 142.605 117.396 142.363 117.301L137.31 115.331L137.142 113.196L136.098 114.858L134.193 114.115L137.239 107.916Z" fill="#2F2E41"/>
<path d="M139.189 41.6084H152.498C152.498 41.6084 157.51 77.3174 157.524 77.3824C157.539 77.4474 154.696 78.4787 155.988 79.7679L157.28 81.0571C158.314 82.0884 156.513 85.6125 156.513 85.6125L158.573 106.583H150.066L145.908 63.2665L151.533 84.033L144.205 106.583L138.93 103.489L137.896 100.652L139.95 98.6036C139.95 98.6036 140.481 95.5242 140.481 93.7052C140.481 91.8861 138.93 93.4331 140.481 91.8861C141.152 91.2168 143.041 83.0042 143.041 83.0042L136.863 63.2665L135.391 54.4558C135.012 52.1847 135.352 49.8523 136.365 47.7834C137.183 46.1089 138.215 43.9159 139.189 41.6084Z" fill="#2F2E41"/>
<path d="M138.413 19.6925L139.298 17.0454C139.495 16.4564 139.863 15.9395 140.357 15.561C140.85 15.1825 141.445 14.9598 142.067 14.9213L142.853 14.8726C143.552 14.8293 144.245 15.0217 144.822 15.4191C145.398 15.8164 145.823 16.3955 146.03 17.0632V17.0632C146.211 17.654 146.565 18.1774 147.046 18.5665C147.527 18.9555 148.114 19.1924 148.731 19.2468C151.028 19.442 154.437 20.135 154.437 22.5287C154.437 26.1384 150.561 35.6783 151.336 36.4518C152.111 37.2253 153.921 40.4127 152.887 41.3506C152.617 41.595 152.835 42.7703 152.921 43.6122C153.077 45.1369 142.29 41.766 139.189 42.6398C136.087 43.5136 137.638 36.9675 137.121 36.4518C136.636 35.8617 136.203 35.2304 135.829 34.5651C135.645 34.2589 135.516 33.9234 135.447 33.5736L134.557 29.079C134.542 29.0041 134.53 28.9308 134.521 28.8551C134.404 27.8931 133.715 21.4203 136.346 20.466C139.189 19.4347 138.413 19.6925 138.413 19.6925Z" fill="#F2F2F2"/>
<path d="M150.458 43.4318L150.051 27.2604C150.035 26.5752 150.291 25.9116 150.762 25.4126C151.233 24.9136 151.881 24.6194 152.568 24.5934C152.923 24.58 153.277 24.6388 153.609 24.7664C153.94 24.8939 154.243 25.0875 154.497 25.3353C154.751 25.5832 154.952 25.88 155.087 26.2078C155.223 26.5357 155.29 26.8875 155.284 27.242L155.191 44.0531L155.566 54.2704C156.004 54.4366 156.381 54.7335 156.644 55.1205C156.908 55.5076 157.045 55.9662 157.038 56.434C157.031 56.9019 156.88 57.3562 156.605 57.7354C156.331 58.1145 155.946 58.4001 155.502 58.5533C155.059 58.7065 154.58 58.7198 154.129 58.5916C153.678 58.4634 153.277 58.1997 152.981 57.8365C152.686 57.4733 152.509 57.0281 152.476 56.5614C152.443 56.0947 152.555 55.6291 152.796 55.2279L150.458 43.4318Z" fill="#A0616A"/>
<path d="M148.644 30.5931C148.519 30.4794 148.435 30.3281 148.405 30.1622C148.375 29.9963 148.4 29.8251 148.476 29.6749C148.568 29.4877 148.598 29.2768 148.563 29.0717C148.556 29.0321 148.546 28.993 148.534 28.9547C148.454 28.7257 148.431 28.4808 148.466 28.2409C148.501 28.001 148.594 27.7731 148.737 27.5766C149.215 26.9368 149.412 25.9964 149.474 25.1641C149.489 24.2501 149.614 23.3413 149.847 22.4572C150.258 21.2052 151.338 20.0511 152.922 20.4911C153.592 20.6886 154.174 21.1107 154.569 21.6861C155.411 22.8783 155.499 24.3695 155.57 25.7969L155.819 25.2181C155.869 26.7785 156.235 28.3127 156.894 29.7286C156.544 29.68 156.324 30.1577 156.454 30.4858C156.627 30.7948 156.879 31.0531 157.183 31.235C157.533 31.51 157.872 31.9281 157.583 32.3925C157.51 32.5016 157.416 32.5946 157.306 32.6657C157.196 32.7367 157.072 32.7842 156.942 32.8053C154.504 33.2552 151.999 33.1971 149.584 32.6347C149.048 32.5095 148.47 32.3267 148.17 31.8662C147.869 31.4056 148.094 30.6149 148.644 30.5931Z" fill="#F2F2F2"/>
<path d="M141.975 15.3099C145.115 15.3099 147.661 12.7703 147.661 9.63757C147.661 6.50481 145.115 3.96521 141.975 3.96521C138.835 3.96521 136.289 6.50481 136.289 9.63757C136.289 12.7703 138.835 15.3099 141.975 15.3099Z" fill="#A0616A"/>
<path d="M136.602 18.2566C136.605 17.5924 137.479 17.2447 138.113 17.4526C138.744 17.6617 139.199 18.1978 139.707 18.6248C140.216 19.0541 140.921 19.3965 141.529 19.1291C142.106 18.8742 142.34 18.1927 142.772 17.7356C143.294 17.2505 143.976 16.9736 144.689 16.9575C144.674 16.8928 144.66 16.8281 144.651 16.7634C144.593 16.4217 144.579 16.074 144.608 15.7286C144.754 16.0242 144.945 16.2953 145.174 16.5321C145.319 16.6823 145.479 16.8169 145.652 16.9335C146.367 16.989 147.086 16.935 147.785 16.7732C148.62 16.5277 149.401 15.7915 149.336 14.9226C149.284 14.6028 149.156 14.2999 148.963 14.039C148.771 13.7781 148.519 13.5666 148.228 13.422C147.667 13.0982 149.634 11.6622 149.048 11.3878C148.485 11.1399 147.977 10.7808 147.557 10.3322C147.136 9.88363 146.811 9.35477 146.601 8.7775C146.43 8.26486 146.384 7.71906 146.465 7.18499C146.547 6.65093 146.755 6.14387 147.072 5.70555C147.589 5.64025 145.541 5.88548 146.031 5.70692C145.973 5.36503 145.949 5.93902 145.979 5.59453C146.124 5.89114 146.326 5.23933 146.554 5.47562C146.993 5.25396 147.335 4.88008 147.518 4.42416C147.893 3.4269 147.257 3.23155 146.431 2.55469C145.804 2.04252 145.065 1.68608 144.273 1.51473C143.482 1.34338 142.661 1.36201 141.878 1.56909C141.095 1.77616 140.373 2.16576 139.77 2.70582C139.168 3.24588 138.702 3.92095 138.412 4.67548C137.161 4.05097 135.551 4.63951 134.676 5.73105C133.804 6.82377 133.54 8.28336 133.53 9.6797C133.514 12.8096 134.602 15.8453 136.602 18.2566V18.2566Z" fill="#2F2E41"/>
<path d="M115.965 114.991L113.301 114.99L112.034 104.742L115.965 104.742L115.965 114.991Z" fill="#FFB6B6"/>
<path d="M116.058 117.762L107.868 117.762V117.659C107.868 116.815 108.204 116.006 108.802 115.41C109.4 114.814 110.211 114.479 111.056 114.479H111.056L112.552 113.346L115.343 114.479H116.058L116.058 117.762Z" fill="#2F2E41"/>
<path d="M128.069 114.991L125.406 114.99L124.139 104.742L128.07 104.742L128.069 114.991Z" fill="#FFB6B6"/>
<path d="M128.163 117.762L119.973 117.762V117.659C119.973 116.815 120.309 116.006 120.907 115.41C121.504 114.814 122.315 114.479 123.161 114.479H123.161L124.657 113.346L127.448 114.479H128.163L128.163 117.762Z" fill="#2F2E41"/>
<path d="M109.489 49.1946C109.489 49.1946 105.185 54.5201 106.02 55.901C106.854 57.2819 108.199 56.8036 106.854 58.2503C105.509 59.697 104.971 59.7139 105.912 60.7788C106.854 61.8437 107.672 85.1201 107.672 85.1201L111.965 109.341L116.689 109.766C116.689 109.766 117.571 106.805 117.592 105.658C117.614 104.511 117.614 105.51 117.614 103.132C117.614 100.754 116.764 102.596 117.592 100.333C118.421 98.0705 119.454 91.4041 117.592 88.1628C115.731 84.9215 117.194 87.7653 117.194 87.7653L118.636 65.7992L121.38 88.41C121.38 88.41 121.38 96.192 122.725 101.827L122.947 109.766L128.744 109.545C128.744 109.545 130.256 107.194 129.719 104.511C129.181 101.827 131.332 100.486 131.332 99.1438C131.332 97.8021 131.219 84.968 131.219 84.968L129.962 58.2502C129.962 58.2502 131.063 52.1833 128.643 49.7681C126.222 47.353 109.489 49.1946 109.489 49.1946Z" fill="#2F2E41"/>
<path d="M114.645 20.8581L118.36 16.6854L124.23 17.3361L127.988 22.5826C132.141 23.5362 132.907 26.9238 132.178 31.1128C130.719 39.4899 127.119 45.3455 128.756 49.4788C131.24 55.753 130.036 60.5811 124.089 59.7015C118.143 58.8219 104.441 53.0129 108.303 49.16C112.166 45.307 110.984 40.385 110.984 40.385L111.424 28.5573C110.73 24.8007 110.837 21.2514 114.645 20.8581L114.645 20.8581Z" fill="#FBC24C"/>
<path d="M112.861 35.1844L108.723 32.5221C106.074 34.3349 96.9724 43.3827 96.9724 43.3827L87.9054 51.676C87.5288 51.739 87.1754 51.8999 86.8809 52.1424C86.5864 52.385 86.3611 52.7007 86.2278 53.0577C86.0944 53.4147 86.0577 53.8005 86.1213 54.1762C86.1849 54.5518 86.3466 54.9042 86.5901 55.1977C86.8336 55.4912 87.1503 55.7156 87.5084 55.8482C87.8664 55.9808 88.2531 56.0169 88.6296 55.953C89.0061 55.8891 89.3591 55.7274 89.6531 55.4841C89.947 55.2408 90.1715 54.9246 90.304 54.5673L101.567 44.4206L112.861 35.1844Z" fill="#FFB6B6"/>
<path d="M117.803 22.5929C118.44 23.0129 118.977 23.5678 119.374 24.2181C119.772 24.8684 120.02 25.5981 120.103 26.3552C120.186 27.1124 120.1 27.8784 119.852 28.5988C119.605 29.3192 119.201 29.9763 118.669 30.5233L116.506 32.7507C116.506 32.7507 106.048 44.6819 103.056 46.047L95.5679 51.1574L91.5375 47.984L98.0718 41.2405C98.0718 41.2405 106.533 35.0645 106.591 32.7257C106.627 31.2935 108.558 27.1742 110.613 24.0449C110.989 23.478 111.473 22.9907 112.039 22.6108C112.604 22.2309 113.238 21.9659 113.906 21.831C114.574 21.6962 115.262 21.694 115.931 21.8248C116.6 21.9555 117.236 22.2165 117.803 22.5929V22.5929Z" fill="#FBC24C"/>
<path d="M128.072 11.2616C129.197 8.11283 127.551 4.65004 124.395 3.52725C121.238 2.40446 117.767 4.04684 116.642 7.19561C115.516 10.3444 117.163 13.8072 120.319 14.93C123.475 16.0528 126.946 14.4104 128.072 11.2616Z" fill="#FFB6B6"/>
<path d="M119.215 2.32856C119.47 1.88535 119.821 1.50498 120.243 1.21563C120.446 1.09741 120.672 1.02322 120.905 0.997879C121.139 0.972542 121.375 0.996644 121.598 1.0686C121.822 1.14056 122.028 1.25876 122.202 1.41548C122.377 1.5722 122.517 1.76391 122.612 1.97809C122.615 1.68715 122.688 1.4012 122.824 1.14405C123.17 1.49225 123.57 1.78355 124.007 2.00712L123.37 0.590002C125.784 0.407586 127.488 1.06989 128.253 2.84849C128.472 3.3577 129.297 3.34965 129.538 3.88061C129.779 4.41156 129.499 5.26192 128.937 5.31007C130.018 5.29105 129.686 6.19992 130.003 7.29414C130.321 8.38835 130.142 9.61907 129.786 10.7482C129.325 12.2124 128.03 13.1712 126.766 13.9203C125.94 14.4102 124.294 15.1534 124.285 15.1579C119.74 17.5375 116.842 12.6827 117.924 7.89081C118.168 6.80859 119.055 5.63518 118.42 4.82386C117.925 4.19222 116.988 4.30877 116.204 4.4758C116.509 3.42529 118.624 3.24245 119.215 2.32856Z" fill="#2F2E41"/>
<path d="M195.449 111.169C195.459 110.915 193.984 110.652 192.155 110.581C190.325 110.51 188.834 110.658 188.824 110.911C188.815 111.165 190.289 111.428 192.119 111.499C193.948 111.57 195.439 111.422 195.449 111.169Z" fill="#E6E6E6"/>
<path d="M216.433 113.019C216.443 112.766 214.968 112.503 213.139 112.432C211.309 112.36 209.818 112.508 209.809 112.762C209.799 113.015 211.274 113.278 213.103 113.35C214.932 113.421 216.423 113.273 216.433 113.019Z" fill="#3F3D56"/>
<path d="M186.969 114.115C186.979 113.861 185.504 113.598 183.675 113.527C181.846 113.456 180.355 113.604 180.345 113.857C180.335 114.111 181.81 114.374 183.639 114.445C185.468 114.516 186.959 114.368 186.969 114.115Z" fill="#FF6584"/>
<path d="M209.603 117.063C209.613 116.809 208.138 116.546 206.309 116.475C204.479 116.404 202.988 116.551 202.979 116.805C202.969 117.058 204.443 117.322 206.273 117.393C208.102 117.464 209.593 117.316 209.603 117.063Z" fill="#FF6584"/>
<path d="M176.659 114.77C176.661 114.542 176.003 114.352 175.19 114.345C174.377 114.338 173.716 114.518 173.714 114.746C173.712 114.974 174.37 115.164 175.183 115.171C175.996 115.178 176.657 114.998 176.659 114.77Z" fill="#E6E6E6"/>
<path d="M184.805 116.509C184.807 116.281 184.15 116.09 183.337 116.084C182.524 116.077 181.863 116.256 181.861 116.484C181.859 116.713 182.517 116.903 183.33 116.91C184.143 116.916 184.804 116.737 184.805 116.509Z" fill="#E6E6E6"/>
<path d="M171.502 117.106C171.504 116.878 170.847 116.688 170.033 116.681C169.22 116.674 168.56 116.853 168.558 117.082C168.556 117.31 169.213 117.5 170.027 117.507C170.84 117.514 171.5 117.334 171.502 117.106Z" fill="#3F3D56"/>
<path d="M199.467 114.278C199.469 114.05 198.811 113.859 197.998 113.853C197.185 113.846 196.525 114.025 196.523 114.253C196.521 114.482 197.178 114.672 197.991 114.679C198.805 114.685 199.465 114.506 199.467 114.278Z" fill="#E6E6E6"/>
<path d="M189.961 112.582C189.963 112.354 189.306 112.164 188.492 112.157C187.679 112.15 187.019 112.33 187.017 112.558C187.015 112.786 187.672 112.976 188.486 112.983C189.299 112.99 189.959 112.811 189.961 112.582Z" fill="#FF6584"/>
<path d="M205.748 111.716C205.75 111.488 205.092 111.298 204.279 111.291C203.466 111.284 202.805 111.464 202.803 111.692C202.801 111.92 203.459 112.11 204.272 112.117C205.085 112.124 205.746 111.944 205.748 111.716Z" fill="#3F3D56"/>
<path d="M193.765 116.618C193.767 116.39 193.109 116.2 192.296 116.193C191.483 116.186 190.822 116.365 190.82 116.594C190.818 116.822 191.476 117.012 192.289 117.019C193.102 117.026 193.763 116.846 193.765 116.618Z" fill="#3F3D56"/>
<path d="M71.8717 111.079C71.8816 110.825 70.536 110.567 68.8662 110.502C67.1964 110.437 65.8348 110.59 65.8249 110.843C65.8149 111.097 67.1605 111.355 68.8303 111.42C70.5001 111.485 71.8617 111.332 71.8717 111.079Z" fill="#E6E6E6"/>
<path d="M91.0233 112.858C91.0332 112.604 89.6876 112.346 88.0179 112.281C86.3481 112.216 84.9864 112.369 84.9765 112.623C84.9666 112.876 86.3122 113.134 87.982 113.199C89.6518 113.264 91.0134 113.111 91.0233 112.858Z" fill="#3F3D56"/>
<path d="M64.1196 114.052C64.1295 113.799 62.7839 113.54 61.1141 113.476C59.4444 113.411 58.0827 113.563 58.0728 113.817C58.0629 114.07 59.4085 114.329 61.0782 114.393C62.748 114.458 64.1097 114.306 64.1196 114.052Z" fill="#FF6584"/>
<path d="M84.7739 116.924C84.7838 116.67 83.4382 116.412 81.7685 116.347C80.0987 116.282 78.737 116.435 78.7271 116.688C78.7172 116.942 80.0628 117.2 81.7326 117.265C83.4024 117.33 84.764 117.177 84.7739 116.924Z" fill="#FF6584"/>
<path d="M54.7057 114.743C54.7068 114.515 54.106 114.327 53.3636 114.324C52.6213 114.32 52.0186 114.502 52.0175 114.73C52.0164 114.958 52.6173 115.146 53.3596 115.15C54.102 115.153 54.7046 114.971 54.7057 114.743Z" fill="#E6E6E6"/>
<path d="M62.1366 116.453C62.1377 116.225 61.5369 116.037 60.7945 116.034C60.0522 116.03 59.4495 116.212 59.4484 116.44C59.4473 116.668 60.0482 116.856 60.7905 116.86C61.5329 116.863 62.1355 116.681 62.1366 116.453Z" fill="#E6E6E6"/>
<path d="M49.9876 117.096C49.9887 116.868 49.3878 116.68 48.6455 116.676C47.9032 116.673 47.3005 116.855 47.2994 117.083C47.2983 117.311 47.8992 117.499 48.6415 117.502C49.3838 117.506 49.9865 117.324 49.9876 117.096Z" fill="#3F3D56"/>
<path d="M75.5283 114.173C75.5294 113.945 74.9285 113.758 74.1862 113.754C73.4438 113.75 72.8412 113.932 72.8401 114.161C72.839 114.389 73.4398 114.576 74.1822 114.58C74.9245 114.584 75.5272 114.402 75.5283 114.173Z" fill="#E6E6E6"/>
<path d="M66.8555 112.51C66.8566 112.282 66.2557 112.094 65.5134 112.091C64.771 112.087 64.1684 112.269 64.1673 112.497C64.1662 112.726 64.7671 112.913 65.5094 112.917C66.2517 112.92 66.8544 112.738 66.8555 112.51Z" fill="#FF6584"/>
<path d="M81.2727 111.59C81.2738 111.362 80.6729 111.174 79.9306 111.171C79.1883 111.167 78.5856 111.349 78.5845 111.577C78.5834 111.805 79.1843 111.993 79.9266 111.997C80.6689 112 81.2716 111.818 81.2727 111.59Z" fill="#3F3D56"/>
<path d="M70.3159 116.532C70.317 116.304 69.7161 116.116 68.9738 116.113C68.2314 116.109 67.6288 116.291 67.6277 116.519C67.6266 116.747 68.2274 116.935 68.9698 116.939C69.7121 116.942 70.3148 116.76 70.3159 116.532Z" fill="#3F3D56"/>
<path d="M219.971 90.3181C215.749 90.3181 211.667 88.8142 208.459 86.0772C207.388 85.1633 206.248 83.5744 205.069 81.3551C204.317 79.9255 203.896 78.3459 203.836 76.7325C203.777 75.119 204.081 73.5128 204.726 72.0321C204.104 72.663 203.417 73.2257 202.675 73.7106L202.3 73.9595L202.278 73.5109C202.264 73.2191 202.257 72.9283 202.257 72.6466C202.257 70.9863 203.515 69.3016 202.935 67.767C200.488 61.299 192.728 54.8711 203.975 44.8609C205.015 43.9349 203.625 42.0834 203.625 40.6824C203.625 26.9521 218.58 6.35538 228.591 15.7816C234.434 21.2838 246.609 25.1925 252.293 32.8458L252.369 33.0725L252.147 33.1621C251.011 33.6382 249.815 33.9556 248.592 34.1053C249.896 34.3705 251.226 34.4817 252.556 34.4365L252.762 34.4294L252.812 34.6293C253.307 36.6092 253.557 38.642 253.556 40.6824L253.556 40.903C253.551 42.4528 253.874 43.9862 254.503 45.4032C255.132 46.8202 256.054 48.089 257.208 49.1268C259.03 50.7845 260.486 52.8027 261.484 55.053C262.481 57.3032 262.997 59.736 263 62.1964C263 65.1072 261.017 68.9281 259.353 71.6209C258.932 72.3068 258.36 72.8886 257.681 73.3226C257.001 73.7566 256.233 74.0315 255.432 74.1267C254.673 74.2222 253.903 74.1501 253.175 73.9156C252.448 73.6812 251.781 73.29 251.221 72.7699C252.009 74.3493 253.035 75.7987 254.264 77.067L254.491 77.3004L254.209 77.4642C251.501 79.0397 248.421 79.8693 245.286 79.8681L245.102 79.8676C240.343 79.8676 235.824 81.7072 232.707 84.9149C231.051 86.6161 229.072 87.9703 226.885 88.8982C224.698 89.826 222.347 90.3088 219.971 90.3181V90.3181Z" fill="#FBC24C"/>
<path d="M213.724 118C213.647 118 213.573 117.972 213.516 117.922C213.458 117.872 213.42 117.803 213.409 117.727C213.396 117.632 212.07 108.094 213.261 95.4174C214.36 83.7103 217.891 66.8479 228.469 52.9991C228.494 52.9658 228.526 52.9377 228.562 52.9166C228.598 52.8954 228.638 52.8816 228.68 52.876C228.721 52.8703 228.764 52.8729 228.804 52.8835C228.845 52.8942 228.883 52.9127 228.916 52.9381C228.949 52.9634 228.977 52.9951 228.998 53.0313C229.02 53.0674 229.033 53.1074 229.039 53.1489C229.044 53.1903 229.042 53.2325 229.031 53.2729C229.02 53.3133 229.001 53.3512 228.976 53.3844C218.489 67.1136 214.987 83.8523 213.895 95.4767C212.711 108.08 214.026 117.543 214.04 117.637C214.046 117.683 214.043 117.728 214.03 117.772C214.017 117.816 213.995 117.856 213.965 117.891C213.935 117.925 213.898 117.953 213.856 117.971C213.815 117.99 213.77 118 213.724 118V118Z" fill="#3F3D56"/>
<path d="M223.382 72.183C223.315 72.1831 223.25 72.1619 223.195 72.1225C223.141 72.083 223.1 72.0274 223.079 71.9636C223.058 71.8997 223.058 71.831 223.079 71.7671C223.1 71.7033 223.141 71.6476 223.195 71.6082C226.209 69.5729 229.465 67.9194 232.888 66.6857C238.236 64.7325 246.368 62.9618 254.74 65.6199C254.78 65.6325 254.817 65.6529 254.849 65.6798C254.881 65.7067 254.907 65.7396 254.926 65.7767C254.946 65.8138 254.957 65.8543 254.961 65.8959C254.964 65.9374 254.96 65.9793 254.947 66.019C254.934 66.0588 254.914 66.0957 254.887 66.1276C254.86 66.1595 254.827 66.1858 254.79 66.205C254.753 66.2241 254.712 66.2358 254.67 66.2393C254.629 66.2428 254.587 66.2382 254.547 66.2255C246.346 63.622 238.362 65.3634 233.107 67.2826C229.739 68.4951 226.535 70.1209 223.57 72.1223C223.515 72.1618 223.45 72.1831 223.382 72.183V72.183Z" fill="#3F3D56"/>
<path d="M208.584 34.6478C208.579 34.5809 208.595 34.5141 208.631 34.4571C208.666 34.4 208.719 34.3557 208.781 34.3304C208.844 34.305 208.912 34.3001 208.978 34.3161C209.043 34.3322 209.102 34.3685 209.145 34.4198C211.397 37.2723 213.285 40.3929 214.764 43.7101C217.102 48.8906 219.458 56.8547 217.404 65.3764C217.394 65.4171 217.376 65.4555 217.352 65.4893C217.327 65.5232 217.296 65.5519 217.261 65.5738C217.225 65.5957 217.185 65.6104 217.144 65.6169C217.102 65.6235 217.06 65.6218 217.019 65.612C216.979 65.6022 216.94 65.5845 216.906 65.5599C216.872 65.5353 216.844 65.5042 216.822 65.4685C216.8 65.4329 216.785 65.3932 216.779 65.3519C216.773 65.3106 216.774 65.2684 216.784 65.2278C218.797 56.8807 216.481 49.0612 214.183 43.971C212.729 40.7071 210.872 37.6364 208.658 34.8296C208.614 34.7783 208.588 34.7147 208.584 34.6478V34.6478Z" fill="#3F3D56"/>
<path d="M30.2933 84.9149C27.1755 81.7072 22.6575 79.8676 17.8975 79.8676L17.7139 79.8681C14.5787 79.8693 11.4994 79.0397 8.79101 77.4642L8.50917 77.3004L8.73618 77.0671C9.96509 75.7987 10.9912 74.3494 11.7787 72.7699C11.2194 73.29 10.5524 73.6812 9.82482 73.9156C9.09725 74.1501 8.32691 74.2222 7.56833 74.1267C6.76744 74.0315 5.99857 73.7566 5.31939 73.3226C4.64021 72.8886 4.06835 72.3068 3.64672 71.6209C1.98308 68.9281 0 65.1072 0 62.1964C0.00258863 59.736 0.518977 57.3032 1.51626 55.053C2.51353 52.8028 3.96982 50.7845 5.7923 49.1268C6.94608 48.089 7.86765 46.8202 8.49694 45.4032C9.12623 43.9862 9.44909 42.4528 9.44449 40.903L9.44357 40.6824C9.44326 38.642 9.6932 36.6092 10.1878 34.6293L10.2381 34.4294L10.4443 34.4365C11.774 34.4817 13.1043 34.3705 14.408 34.1053C13.1852 33.9557 11.9889 33.6383 10.8532 33.1621L10.6314 33.0726L10.7067 32.8458C16.391 25.1925 28.5656 21.2838 34.4091 15.7816C44.4201 6.35537 59.3746 26.9521 59.3746 40.6824C59.3746 42.0834 57.9847 43.9349 59.0252 44.8609C70.2725 54.8711 62.512 61.299 60.0652 67.767C59.4847 69.3016 60.7435 70.9863 60.7435 72.6466C60.7435 72.9283 60.7363 73.2191 60.722 73.5109L60.7004 73.9595L60.3253 73.7106C59.5835 73.2258 58.8958 72.663 58.2741 72.0321C58.9191 73.5128 59.223 75.119 59.1636 76.7325C59.1042 78.3459 58.6829 79.9255 57.9307 81.3551C56.7521 83.5744 55.6117 85.1633 54.5415 86.0772C51.1131 89.0041 46.6934 90.5138 42.1862 90.2978C37.6789 90.0818 33.4247 88.1563 30.2933 84.915L30.2933 84.9149Z" fill="#FBC24C"/>
<path d="M49.2758 118C49.3525 118 49.4265 117.972 49.4844 117.922C49.5422 117.872 49.58 117.803 49.5908 117.727C49.6044 117.632 50.9301 108.094 49.7394 95.4174C48.6399 83.7103 45.1088 66.8479 34.5311 52.9991C34.5058 52.9658 34.4741 52.9377 34.4379 52.9166C34.4017 52.8954 34.3617 52.8816 34.3202 52.876C34.2787 52.8703 34.2364 52.8729 34.1959 52.8835C34.1553 52.8942 34.1173 52.9127 34.0839 52.9381C34.0506 52.9634 34.0226 52.9951 34.0015 53.0313C33.9805 53.0674 33.9668 53.1074 33.9612 53.1489C33.9557 53.1903 33.9584 53.2325 33.9692 53.2729C33.98 53.3133 33.9988 53.3512 34.0243 53.3844C44.5107 67.1136 48.0133 83.8523 49.1051 95.4767C50.2888 108.08 48.9735 117.543 48.96 117.637C48.9537 117.683 48.9571 117.728 48.97 117.772C48.9829 117.816 49.0051 117.856 49.0351 117.891C49.065 117.925 49.102 117.953 49.1435 117.971C49.1851 117.99 49.2302 118 49.2758 118V118Z" fill="#3F3D56"/>
<path d="M39.6175 72.183C39.6848 72.1831 39.7504 72.1619 39.8048 72.1225C39.8593 72.083 39.8998 72.0274 39.9207 71.9636C39.9415 71.8997 39.9415 71.831 39.9208 71.7671C39.9 71.7033 39.8595 71.6476 39.805 71.6082C36.791 69.5729 33.535 67.9194 30.1119 66.6857C24.7641 64.7325 16.6319 62.9618 8.2599 65.6199C8.1794 65.6454 8.11237 65.7018 8.07356 65.7767C8.03475 65.8516 8.02735 65.9387 8.05296 66.019C8.07858 66.0994 8.13513 66.1662 8.21017 66.205C8.28521 66.2437 8.3726 66.2511 8.4531 66.2255C16.6535 63.622 24.6383 65.3634 29.8929 67.2826C33.2609 68.4952 36.4647 70.1209 39.4305 72.1223C39.4848 72.1618 39.5503 72.1831 39.6175 72.183V72.183Z" fill="#3F3D56"/>
<path d="M54.4164 34.6478C54.4213 34.5809 54.4048 34.5141 54.3693 34.4571C54.3338 34.4 54.2811 34.3557 54.2188 34.3304C54.1565 34.305 54.0877 34.3001 54.0224 34.3161C53.957 34.3322 53.8985 34.3685 53.8551 34.4198C51.6032 37.2723 49.7155 40.3929 48.2355 43.7101C45.8976 48.8906 43.5416 56.8547 45.5963 65.3764C45.606 65.4171 45.6236 65.4555 45.6482 65.4893C45.6727 65.5232 45.7038 65.5519 45.7395 65.5738C45.7752 65.5957 45.8149 65.6104 45.8563 65.6169C45.8977 65.6235 45.94 65.6218 45.9807 65.612C46.0215 65.6022 46.0599 65.5845 46.0938 65.5599C46.1277 65.5353 46.1563 65.5042 46.1782 65.4685C46.2 65.4329 46.2145 65.3932 46.221 65.3519C46.2274 65.3106 46.2256 65.2684 46.2157 65.2278C44.2033 56.8807 46.5194 49.0612 48.8166 43.971C50.2714 40.7071 52.1275 37.6364 54.3422 34.8296C54.3856 34.7783 54.4115 34.7147 54.4164 34.6478V34.6478Z" fill="#3F3D56"/>
</svg>
