<svg width="60" height="60" viewBox="0 0 32 32" fill="none" xmlns="http://www.w3.org/2000/svg">
<path d="M5.33333 16C5.33333 14.4518 5.33333 13.6777 5.42835 13.029C6.00465 9.09457 9.09456 6.00467 13.0289 5.42837C13.6777 5.33334 14.4518 5.33334 16 5.33334V5.33334C17.5482 5.33334 18.3223 5.33334 18.971 5.42837C22.9054 6.00467 25.9953 9.09457 26.5716 13.029C26.6667 13.6777 26.6667 14.4518 26.6667 16V22.7879C26.6667 24.5559 26.6667 25.4399 26.1466 26.012C26.1039 26.059 26.059 26.1039 26.012 26.1466C25.4399 26.6667 24.5559 26.6667 22.7879 26.6667H16C14.4518 26.6667 13.6777 26.6667 13.0289 26.5716C9.09456 25.9953 6.00465 22.9054 5.42835 18.9711C5.33333 18.3223 5.33333 17.5482 5.33333 16V16Z" stroke="#FBC24C"/>
<path d="M12 14.6667L20 14.6667" stroke="#FBC24C" stroke-linecap="round" stroke-linejoin="round"/>
<path d="M16 20H20" stroke="#FBC24C" stroke-linecap="round" stroke-linejoin="round"/>
</svg>
