<svg width="198" height="88" viewBox="0 0 198 88" fill="none" xmlns="http://www.w3.org/2000/svg">
<path d="M198 88H0V9.79006e-06H198V88Z" fill="#FBC24C"/>
<path d="M172.344 56.9927C169.991 56.9927 168.083 55.1324 168.083 52.8378V51.8095C168.083 49.5149 166.176 47.6546 163.822 47.6546H154.259C153.22 47.6546 152.377 46.9057 152.377 45.9822C152.377 43.7043 150.3 41.8576 147.737 41.8576H136.426C135.387 41.8576 134.544 41.1087 134.544 40.1852C134.544 37.8906 132.636 36.0303 130.283 36.0303H120.712C120.546 36.0303 120.383 36.021 120.222 36.003C118.022 35.7601 117.105 34.5532 116.723 33.4919L84.4327 23.9114L73.0606 22.1245C70.7074 22.1245 68.7996 23.9848 68.7996 26.2794V31.8754C68.7996 34.1699 66.8919 36.0303 64.5387 36.0303H57.7893C55.4361 36.0303 53.5284 37.8906 53.5284 40.1852V43.5001C53.5284 45.7947 51.6206 47.6546 49.2675 47.6546H33.2968C30.9435 47.6546 29.0359 49.5149 29.0359 51.8095V53.3266C29.0359 55.6212 30.9435 57.4811 33.2968 57.4811H39.9874C42.3405 57.4811 44.2482 59.3414 44.2482 61.636V64.0116C44.2482 66.3062 42.3405 68.1665 39.9874 68.1665H30.975C28.6217 68.1665 29.2772 71.3754 29.2772 73.67L26.7141 76.8701C26.7141 79.1647 28.6217 81.025 30.975 81.025H158.979C161.333 81.025 163.24 79.1647 163.24 76.8701V72.321C163.24 70.0264 165.148 68.1665 167.501 68.1665H172.344C174.697 68.1665 176.605 66.3062 176.605 64.0116V61.1476C176.605 58.853 174.697 56.9927 172.344 56.9927" fill="#B0CFF4"/>
<path d="M167.614 69.1042C168.992 67.137 169.249 64.7614 169.221 63.1149C169.192 61.3276 168.831 59.9891 168.828 59.9759L168.927 59.9438C168.931 59.9575 169.295 61.3052 169.325 63.1048C169.352 64.7671 169.092 67.1673 167.698 69.1588L167.614 69.1042Z" fill="#3C8F7C"/>
<path d="M168.489 59.649C168.523 60.0534 168.719 60.3926 169.001 60.6011C169.242 60.3191 169.377 59.9337 169.343 59.5294C169.309 59.1246 169.113 58.7853 168.832 58.5772C168.591 58.8588 168.455 59.2447 168.489 59.649Z" fill="#3C8F7C"/>
<path d="M169.42 60.5828C169.186 60.9325 169.114 61.3312 169.188 61.677C169.546 61.5991 169.893 61.3703 170.126 61.0201C170.359 60.6703 170.432 60.2717 170.357 59.9258C170 60.0037 169.653 60.233 169.42 60.5828Z" fill="#3C8F7C"/>
<path d="M169.947 61.6814C169.584 61.8975 169.338 62.2305 169.244 62.5816C169.589 62.6714 169.993 62.6173 170.356 62.4017C170.718 62.1857 170.964 61.8526 171.059 61.5015C170.714 61.4117 170.31 61.4654 169.947 61.6814Z" fill="#3C8F7C"/>
<path d="M169.784 63.2113C169.497 63.3829 169.319 63.676 169.271 64.0003C169.57 64.1169 169.907 64.1028 170.194 63.9312C170.481 63.7596 170.659 63.4665 170.707 63.1422C170.408 63.0256 170.071 63.0401 169.784 63.2113Z" fill="#3C8F7C"/>
<path d="M168.597 61.3985C168.275 61.241 167.913 61.2322 167.604 61.3461C167.686 61.651 167.903 61.9252 168.226 62.0831C168.549 62.2406 168.91 62.2494 169.22 62.1355C169.138 61.8306 168.921 61.5564 168.597 61.3985" fill="#3C8F7C"/>
<path d="M168.634 62.4554C168.31 62.2974 167.949 62.2886 167.64 62.4026C167.721 62.7079 167.939 62.982 168.262 63.1396C168.585 63.2975 168.946 63.3063 169.256 63.1924C169.174 62.8874 168.957 62.6133 168.634 62.4554" fill="#3C8F7C"/>
<path d="M168.541 78.7279C171.592 77.744 173.727 75.3966 174.979 73.6006C176.34 71.6509 176.985 69.912 176.991 69.8944L177.126 69.942C177.119 69.9596 176.47 71.7116 175.101 73.6745C173.836 75.4882 171.68 77.8593 168.591 78.8559L168.541 78.7279Z" fill="#96D9C9"/>
<path d="M176.872 69.263C176.594 69.7264 176.546 70.2535 176.695 70.7102C177.18 70.6055 177.629 70.3014 177.907 69.8377C178.185 69.3739 178.233 68.8472 178.085 68.3905C177.6 68.4952 177.15 68.7993 176.872 69.263" fill="#96D9C9"/>
<path d="M177.171 71.0358C176.641 71.2206 176.25 71.5898 176.063 72.0245C176.518 72.2352 177.078 72.274 177.609 72.0896C178.139 71.9048 178.53 71.5356 178.716 71.1009C178.261 70.8902 177.701 70.8514 177.171 71.0358Z" fill="#96D9C9"/>
<path d="M176.896 72.6541C176.328 72.5877 175.797 72.7439 175.42 73.0444C175.729 73.425 176.218 73.7004 176.786 73.7669C177.354 73.8333 177.885 73.6771 178.263 73.3766C177.953 72.9956 177.465 72.7206 176.896 72.6541Z" fill="#96D9C9"/>
<path d="M175.82 74.2047C175.252 74.1382 174.722 74.2944 174.344 74.5945C174.654 74.9756 175.142 75.2506 175.71 75.317C176.278 75.3834 176.809 75.2277 177.186 74.9272C176.876 74.5461 176.389 74.2711 175.82 74.2047Z" fill="#96D9C9"/>
<path d="M175.907 71.7899C175.876 71.3002 175.645 70.8585 175.306 70.5566C175.004 70.8484 174.83 71.2835 174.86 71.7732C174.891 72.2629 175.122 72.7047 175.461 73.0061C175.762 72.7148 175.938 72.2792 175.907 71.7899" fill="#96D9C9"/>
<path d="M174.783 73.3946C174.76 72.9049 174.537 72.4592 174.203 72.1521C173.896 72.4385 173.714 72.8706 173.737 73.3603C173.76 73.85 173.983 74.2958 174.317 74.6029C174.623 74.3164 174.806 73.8844 174.783 73.3946" fill="#96D9C9"/>
<path d="M173.986 75.808C173.769 75.7064 173.531 75.7033 173.33 75.7803C173.392 75.9805 173.541 76.1592 173.758 76.2604C173.975 76.362 174.213 76.3651 174.414 76.2876C174.353 76.0879 174.203 75.9092 173.986 75.808" fill="#96D9C9"/>
<path d="M161.947 76.3418C161.947 76.3418 159.575 71.907 160.368 70.9174C161.464 69.5504 162.827 73.7462 162.893 73.3775C163.521 69.8944 163.39 65.5019 166.325 64.8362C167.994 64.4578 166.215 68.1168 166.422 69.0598C166.629 70.0022 169.405 66.6362 171.115 64.8556C172.824 63.0749 173.871 64.0574 172.88 66.2178C171.921 68.3069 168.45 70.7546 169.227 70.9641C170.004 71.174 174.362 68.2634 175.018 69.3361C175.824 70.6512 169.111 72.9722 169.785 73.2345C170.458 73.4963 173.656 72.2652 173.656 73.3128C173.656 74.36 169.237 74.6218 169.352 75.075C169.538 75.8085 172.314 73.9306 172.53 74.9483C172.752 75.9889 168.763 76.0681 168.902 76.8821C168.982 77.3498 169.987 76.8601 170.169 77.5034C170.583 78.9699 164.296 81.0251 164.296 81.0251L161.947 76.3418" fill="#3C8F7C"/>
<path d="M164.296 80.989C164.296 80.989 166.739 77.524 167.935 76.8579C169.209 76.1481 168.27 78.2263 168.27 78.2263C168.27 78.2263 170.846 75.3993 171.59 75.9532C172.333 76.5072 171.682 77.1729 171.682 77.1729C171.682 77.1729 174.033 76.5125 174.474 77.2767C175.15 78.4511 171.279 79.4966 171.279 79.4966C171.279 79.4966 172.95 79.4539 172.659 80.2586C172.22 81.4726 164.296 80.989 164.296 80.989" fill="#50BFA5"/>
<path d="M174.474 77.2768C174.033 76.5125 171.682 77.1729 171.682 77.1729C171.682 77.1729 172.333 76.5072 171.59 75.9532C170.846 75.3993 168.775 77.1267 168.775 77.1267C168.775 77.1267 168.967 75.7266 167.406 76.9828C166.291 77.8796 164.296 80.989 164.296 80.989L174.474 77.2768" fill="#96D9C9"/>
<path d="M156.936 77.147C155.982 77.543 156.239 78.5268 156.239 78.5268C156.239 78.5268 153.651 76.7364 152.684 77.7814C151.717 78.826 152.225 80.8742 153.36 81.2068C154.494 81.5399 164.364 81.3067 164.364 81.3067C164.364 81.3067 157.795 76.7906 156.936 77.147" fill="#96D9C9"/>
<path d="M161.947 73.4945L161.829 73.4329C163.652 70.5575 164.016 67.2566 164.001 64.9937C163.984 62.5376 163.529 60.7402 163.525 60.7226L163.661 60.6778C163.666 60.6958 164.124 62.5051 164.141 64.9757C164.157 67.2575 163.789 70.5879 161.947 73.4945" fill="#50BFA5"/>
<path d="M163.089 60.3196C163.128 60.8718 163.38 61.3144 163.746 61.567C164.063 61.1503 164.245 60.6034 164.206 60.0512C164.166 59.499 163.914 59.0559 163.549 58.8038C163.231 59.2205 163.05 59.7674 163.089 60.3196Z" fill="#50BFA5"/>
<path d="M164.293 61.4909C163.984 62.0009 163.885 62.5574 163.978 63.0243C164.446 62.8738 164.901 62.517 165.21 62.007C165.519 61.4975 165.619 60.9405 165.525 60.4736C165.057 60.6246 164.602 60.9814 164.293 61.4909Z" fill="#50BFA5"/>
<path d="M164.968 62.938C164.492 63.279 164.167 63.767 164.039 64.2616C164.488 64.3434 165.017 64.2202 165.493 63.8792C165.969 63.5382 166.294 63.0502 166.422 62.5557C165.973 62.4738 165.444 62.597 164.968 62.938Z" fill="#50BFA5"/>
<path d="M164.52 65.567C164.311 65.6964 164.16 65.8926 164.091 66.0972C164.275 66.1456 164.499 66.1096 164.707 65.9802C164.917 65.8504 165.068 65.6546 165.138 65.4496C164.954 65.4016 164.73 65.4372 164.52 65.567" fill="#50BFA5"/>
<path d="M164.419 66.5368C164.21 66.6661 164.058 66.8624 163.989 67.067C164.173 67.1155 164.397 67.0794 164.606 66.95C164.815 66.8202 164.966 66.6243 165.036 66.4193C164.852 66.3709 164.628 66.4069 164.419 66.5368" fill="#50BFA5"/>
<path d="M163.21 62.7128C162.79 62.535 162.318 62.5667 161.914 62.7612C162.016 63.1708 162.297 63.5215 162.716 63.6993C163.136 63.8775 163.607 63.8458 164.013 63.6513C163.91 63.2417 163.63 62.891 163.21 62.7128Z" fill="#50BFA5"/>
<path d="M163.244 64.1621C162.824 63.9839 162.353 64.016 161.947 64.2101C162.05 64.6197 162.331 64.9704 162.751 65.1486C163.17 65.3263 163.642 65.2946 164.047 65.1002C163.944 64.6905 163.663 64.3399 163.244 64.1621Z" fill="#50BFA5"/>
<path d="M163.487 66.224C163.215 66.1082 162.907 66.1285 162.644 66.2552C162.711 66.5219 162.894 66.7502 163.166 66.866C163.439 66.9817 163.746 66.961 164.01 66.8347C163.943 66.5681 163.761 66.3397 163.487 66.224Z" fill="#50BFA5"/>
<path d="M164.363 81.2979C164.363 81.2979 160.051 80.5112 159.11 79.7447C158.169 78.9787 158.586 78.6799 158.586 78.6799C158.586 78.6799 156.928 77.5192 156.954 76.7615C156.98 76.0038 158.06 76.3884 158.06 76.3884C158.06 76.3884 156.229 74.3006 156.664 73.9037C157.472 73.1641 159.588 75.3342 159.588 75.3342C159.588 75.3342 158.96 74.3019 159.623 74.1378C160.622 73.891 161.356 76.4364 161.356 76.4364C161.356 76.4364 161.17 75.431 161.859 75.5647C163.094 75.8041 164.363 81.2979 164.363 81.2979" fill="#50BFA5"/>
<path d="M114.696 81.0388H113.594V37.36H114.696V81.0388" fill="#F47458"/>
<path d="M80.4306 35.9388C80.4682 37.7586 82.1086 39.2234 84.1267 39.2234C86.1453 39.2234 87.7857 37.7586 87.8228 35.9388H80.4306Z" fill="#B75742"/>
<path d="M95.2187 35.9388C95.2563 37.7586 96.8967 39.2234 98.9148 39.2234C100.933 39.2234 102.573 37.7586 102.611 35.9388H95.2187Z" fill="#B75742"/>
<path d="M110.006 35.9387C110.006 35.9506 110.006 35.9625 110.006 35.9748C110.006 37.8237 111.661 39.3228 113.703 39.3228C115.745 39.3228 117.4 37.8237 117.4 35.9748C117.4 35.9625 117.4 35.9506 117.4 35.9387H110.006" fill="#B75742"/>
<path d="M87.8249 35.9388C87.8625 37.7586 89.5024 39.2234 91.521 39.2234C93.5391 39.2234 95.1795 37.7586 95.2172 35.9388H87.8249Z" fill="#F48C7F"/>
<path d="M102.613 35.9388C102.65 37.7586 104.291 39.2234 106.309 39.2234C108.327 39.2234 109.968 37.7586 110.006 35.9388H102.613Z" fill="#F48C7F"/>
<path d="M117.401 35.9388C117.438 37.7586 119.079 39.2234 121.097 39.2234C123.115 39.2234 124.756 37.7586 124.793 35.9388H117.401Z" fill="#F48C7F"/>
<path d="M84.1267 23.1973L124.793 35.9388H84.1267V23.1973Z" fill="#F47458"/>
<path d="M84.3474 81.5206H27.6098V13.2185H84.3474V81.5206Z" fill="#FAE0B2"/>
<path d="M60.2241 62.9702H45.3459V26.9161H60.2241V62.9702Z" fill="#FBC24C"/>
<path d="M46.1685 62.2389V27.6474H59.4016V62.2389H46.1685Z" fill="#86B1F2"/>
<path d="M43.9361 62.9702H29.0579V26.9161H43.9361V62.9702Z" fill="#FBC24C"/>
<path d="M29.8804 62.2389V27.6474H43.1136V62.2389H29.8804Z" fill="#86B1F2"/>
<path d="M76.7943 62.9702H61.9161V26.9161H76.7943V62.9702Z" fill="#FBC24C"/>
<path d="M62.7383 62.2389V27.6474H75.9716V62.2389H62.7383Z" fill="#86B1F2"/>
<path d="M84.9548 15.1545H27.6098V13.2185H84.9548V15.1545Z" fill="#F47458"/>
<path d="M85.9405 81.0476H83.5793V63.7771C83.5793 63.2804 84.0327 62.8778 84.5916 62.8778H84.9282C85.4871 62.8778 85.9405 63.2804 85.9405 63.7771V81.0476Z" fill="#F7CC7F"/>
<path d="M90.8399 81.0476H88.4792V63.7771C88.4792 63.2804 88.9322 62.8778 89.491 62.8778H89.8277C90.387 62.8778 90.8399 63.2804 90.8399 63.7771V81.0476Z" fill="#F7CC7F"/>
<path d="M95.2484 81.0476H92.8877V63.7771C92.8877 63.2804 93.3412 62.8778 93.9 62.8778H94.2366C94.7955 62.8778 95.2484 63.2804 95.2484 63.7771V81.0476Z" fill="#F7CC7F"/>
<path d="M94.5182 68.4398H84.4326V67.4388H94.5182V68.4398Z" fill="#F7CC7F"/>
<path d="M26.5622 81.0476H24.2016V63.7771C24.2016 63.2804 24.6547 62.8778 25.2136 62.8778H25.5503C26.1092 62.8778 26.5622 63.2804 26.5622 63.7771V81.0476Z" fill="#F7CC7F"/>
<path d="M31.462 81.0476H29.1013V63.7771C29.1013 63.2804 29.5545 62.8778 30.1134 62.8778H30.45C31.0089 62.8778 31.462 63.2804 31.462 63.7771V81.0476Z" fill="#F7CC7F"/>
<path d="M35.8707 81.0476H33.5101V63.7771C33.5101 63.2804 33.9631 62.8778 34.5221 62.8778H34.8587C35.4176 62.8778 35.8707 63.2804 35.8707 63.7771V81.0476" fill="#F7CC7F"/>
<path d="M35.1403 68.4398H25.0545V67.4388H35.1403V68.4398Z" fill="#F7CC7F"/>
<path d="M84.4475 77.6486C84.4975 77.3868 84.5233 77.1192 84.5233 76.8473C84.5233 73.8113 81.3226 71.3504 77.3745 71.3504C73.4258 71.3504 70.2252 73.8113 70.2252 76.8473C70.2252 77.1192 70.2509 77.3868 70.3009 77.6486H84.4475Z" fill="#3C8F7C"/>
<path d="M92.5383 76.2978C92.5883 75.9286 92.614 75.5515 92.614 75.1674C92.614 70.8862 89.4133 67.4159 85.4647 67.4159C81.5166 67.4159 78.3159 70.8862 78.3159 75.1674C78.3159 75.5515 78.3417 75.9286 78.3917 76.2978H92.5383Z" fill="#50BFA5"/>
<path d="M89.9207 81.0476C89.8712 80.7862 89.8455 80.5187 89.8455 80.2463C89.8455 77.2108 93.0461 74.7498 96.9943 74.7498C100.942 74.7498 104.144 77.2108 104.144 80.2463C104.144 80.5187 104.117 80.7862 104.068 81.0476H89.9207" fill="#50BFA5"/>
<path d="M78.4793 81.0476C78.4164 80.6788 78.3837 80.3013 78.3837 79.9176C78.3837 75.6364 82.4412 72.1657 87.4462 72.1657C92.4516 72.1657 96.5091 75.6364 96.5091 79.9176C96.5091 80.3013 96.4765 80.6788 96.4131 81.0476H78.4793" fill="#3C8F7C"/>
<path d="M85.438 72.1657C82.9363 72.1657 80.7014 73.267 79.2268 74.9936C78.4759 74.8352 77.678 74.7498 76.8503 74.7498C72.4092 74.7498 68.8091 77.2108 68.8091 80.2463C68.8091 80.5187 68.8378 80.7862 68.8937 81.0476H93.3946C93.4506 80.6788 93.4798 80.3013 93.4798 79.9176C93.4798 75.6364 89.8791 72.1657 85.438 72.1657" fill="#50BFA5"/>
<path d="M52.3063 78.2835C52.335 78.034 52.3498 77.7792 52.3498 77.5201C52.3498 74.6293 50.5 72.2854 48.2176 72.2854C45.9354 72.2854 44.0853 74.6293 44.0853 77.5201C44.0853 77.7792 44.1003 78.034 44.129 78.2835H52.3063Z" fill="#3C8F7C"/>
<path d="M56.983 76.9969C57.0117 76.6454 57.0266 76.2863 57.0266 75.9207C57.0266 71.8436 55.1763 68.5384 52.8943 68.5384C50.6118 68.5384 48.762 71.8436 48.762 75.9207C48.762 76.2863 48.7769 76.6454 48.8056 76.9969H56.983" fill="#50BFA5"/>
<path d="M55.4697 81.5206C55.441 81.2715 55.4261 81.0168 55.4261 80.7572C55.4261 77.8664 57.276 75.5225 59.5584 75.5225C61.8404 75.5225 63.6907 77.8664 63.6907 80.7572C63.6907 81.0168 63.6758 81.2715 63.6471 81.5206H55.4697" fill="#50BFA5"/>
<path d="M48.8564 81.5206C48.82 81.169 48.8011 80.81 48.8011 80.4443C48.8011 76.3673 51.1464 73.062 54.0397 73.062C56.9324 73.062 59.2778 76.3673 59.2778 80.4443C59.2778 80.81 59.2589 81.169 59.2228 81.5206H48.8564" fill="#3C8F7C"/>
<path d="M52.8783 73.062C51.4324 73.062 50.141 74.1105 49.2883 75.7548C48.8542 75.6039 48.3929 75.5229 47.9148 75.5229C45.3477 75.5229 43.2666 77.8664 43.2666 80.7572C43.2666 81.0168 43.2834 81.2715 43.3157 81.5206H57.4778C57.51 81.169 57.5268 80.81 57.5268 80.4443C57.5268 76.3673 55.4458 73.062 52.8783 73.062Z" fill="#50BFA5"/>
<path d="M36.5161 69.9257C37.9634 67.9158 38.2335 65.4887 38.2052 63.807C38.1744 61.9806 37.7953 60.6135 37.7915 60.5999L37.8962 60.5673C37.9 60.581 38.2822 61.9582 38.3134 63.7965C38.3423 65.4949 38.0692 67.9466 36.604 69.9816L36.5161 69.9257" fill="#3C8F7C"/>
<path d="M37.4351 60.2659C37.4706 60.6791 37.6765 61.0258 37.9727 61.2384C38.226 60.951 38.368 60.5568 38.3325 60.1436C38.2969 59.7304 38.0911 59.3837 37.7948 59.1711C37.5416 59.4585 37.3995 59.8527 37.4351 60.2659Z" fill="#3C8F7C"/>
<path d="M38.4131 61.2198C38.1677 61.5776 38.0915 61.9846 38.1702 62.3379C38.5461 62.2582 38.91 62.0246 39.1555 61.6669C39.4009 61.3092 39.4771 60.9022 39.3985 60.5488C39.0225 60.6285 38.6586 60.8621 38.4131 61.2198Z" fill="#3C8F7C"/>
<path d="M38.9673 62.3423C38.5861 62.5627 38.3276 62.9033 38.2283 63.2619C38.5905 63.3538 39.0154 63.2984 39.3967 63.078C39.7779 62.8575 40.0363 62.517 40.1357 62.1584C39.7733 62.0664 39.3485 62.1218 38.9673 62.3423Z" fill="#3C8F7C"/>
<path d="M38.7964 63.9056C38.4946 64.0808 38.3076 64.3799 38.2565 64.7112C38.571 64.8305 38.9248 64.816 39.2266 64.6404C39.5284 64.4653 39.7155 64.1661 39.7665 63.8348C39.4521 63.7156 39.0982 63.7301 38.7964 63.9056Z" fill="#3C8F7C"/>
<path d="M37.5492 62.0532C37.21 61.8922 36.8302 61.8829 36.5051 61.9995C36.591 62.3115 36.8193 62.5914 37.1586 62.7524C37.4979 62.9139 37.8777 62.9227 38.2027 62.8065C38.1168 62.4946 37.8885 62.2147 37.5492 62.0532" fill="#3C8F7C"/>
<path d="M37.5868 63.133C37.2475 62.9715 36.8677 62.9627 36.5427 63.0793C36.6285 63.3908 36.8568 63.6707 37.1962 63.8322C37.5354 63.9932 37.9152 64.0025 38.2402 63.8859C38.1544 63.5743 37.926 63.294 37.5868 63.133Z" fill="#3C8F7C"/>
<path d="M38.578 65.6225C38.3986 65.6599 38.2498 65.7677 38.16 65.9077C38.2874 66.0023 38.4601 66.0432 38.6395 66.0062C38.8189 65.9688 38.9678 65.861 39.0575 65.7211C38.9301 65.6261 38.7574 65.5856 38.578 65.6225Z" fill="#3C8F7C"/>
<path d="M37.1129 71.3456C40.4248 70.6416 42.9507 68.464 44.4865 66.7612C46.1538 64.9128 47.047 63.2086 47.0559 63.1919L47.1907 63.2531C47.1818 63.2702 46.2823 64.9871 44.6043 66.8483C43.0537 68.5678 40.5015 70.7674 37.1486 71.4802L37.1129 71.3456" fill="#3C8F7C"/>
<path d="M47.0111 62.5385C46.6623 62.9825 46.5453 63.5132 46.643 63.9915C47.1631 63.9321 47.6711 63.6667 48.0198 63.2228C48.3686 62.7788 48.4855 62.2481 48.3879 61.7698C47.8678 61.8292 47.3598 62.0946 47.0111 62.5385Z" fill="#3C8F7C"/>
<path d="M47.0995 64.3685C46.5223 64.5044 46.0678 64.8424 45.8176 65.2652C46.2666 65.5235 46.8468 65.6172 47.4242 65.4812C48.0015 65.3453 48.4559 65.0078 48.7061 64.5845C48.2571 64.3262 47.6768 64.2325 47.0995 64.3685Z" fill="#3C8F7C"/>
<path d="M46.6084 65.9859C46.0232 65.8632 45.4491 65.9705 45.0164 66.2389C45.2924 66.656 45.7673 66.9825 46.3525 67.1053C46.9378 67.2276 47.5118 67.1207 47.9446 66.8523C47.6685 66.4352 47.1937 66.1082 46.6084 65.9859Z" fill="#3C8F7C"/>
<path d="M45.289 67.4564C44.7037 67.3336 44.1296 67.441 43.6969 67.7094C43.9729 68.1265 44.4478 68.4534 45.0331 68.5758C45.6184 68.6985 46.1924 68.5912 46.6252 68.3228C46.3492 67.9056 45.8742 67.5792 45.289 67.4564Z" fill="#3C8F7C"/>
<path d="M45.6835 65.0118C45.713 64.5115 45.528 64.0403 45.2118 63.701C44.8598 63.9681 44.6219 64.3936 44.5924 64.8939C44.5629 65.3942 44.748 65.8654 45.0642 66.2042C45.4161 65.9376 45.654 65.5121 45.6835 65.0118" fill="#3C8F7C"/>
<path d="M44.3075 66.5328C44.3455 66.0334 44.1685 65.5591 43.8581 65.215C43.5016 65.4755 43.2565 65.897 43.2186 66.3969C43.1805 66.8967 43.3575 67.371 43.6679 67.7151C44.0243 67.4542 44.2695 67.0327 44.3075 66.5328" fill="#3C8F7C"/>
<path d="M43.1699 68.9071C42.9564 68.783 42.7078 68.757 42.4882 68.8156C42.5271 69.025 42.6613 69.2208 42.8748 69.3449C43.0884 69.4689 43.337 69.4949 43.5567 69.4364C43.5177 69.227 43.3835 69.0312 43.1699 68.9071" fill="#3C8F7C"/>
<path d="M28.3462 75.504L28.203 75.4956C28.4093 72.1279 27.0187 68.9599 25.8158 66.8945C24.5105 64.6536 23.1382 63.1919 23.1244 63.1774L23.2295 63.0815C23.2433 63.096 24.6251 64.5674 25.9385 66.8215C27.152 68.904 28.5547 72.1006 28.3462 75.504Z" fill="#3C8F7C"/>
<path d="M22.5027 62.9847C22.8297 63.4744 23.2991 63.778 23.7757 63.8616C23.8563 63.3516 23.7396 62.7783 23.4126 62.2886C23.0856 61.7989 22.6162 61.4953 22.1396 61.4117C22.059 61.9212 22.1757 62.495 22.5027 62.9847" fill="#3C8F7C"/>
<path d="M24.2511 63.5712C24.2278 64.1626 24.4267 64.7121 24.7598 65.1015C25.1213 64.775 25.3621 64.2651 25.3854 63.6737C25.4088 63.0824 25.2099 62.5324 24.8767 62.143C24.5153 62.4699 24.2745 62.9798 24.2511 63.5712" fill="#3C8F7C"/>
<path d="M25.6467 64.6233C25.3775 65.1275 25.3278 65.7053 25.4673 66.2095C25.9328 66.103 26.3657 65.777 26.6349 65.2732C26.9042 64.7689 26.9539 64.1912 26.8144 63.6869C26.3488 63.7934 25.916 64.119 25.6467 64.6233Z" fill="#3C8F7C"/>
<path d="M26.6056 67.21C26.4767 67.4128 26.4374 67.6535 26.4797 67.8691C26.6782 67.8388 26.87 67.7156 26.9989 67.5127C27.1278 67.3099 27.1671 67.0692 27.1248 66.8536C26.9263 66.884 26.7346 67.0072 26.6056 67.21Z" fill="#3C8F7C"/>
<path d="M27.0194 68.1384C26.8904 68.3412 26.8511 68.5819 26.8935 68.7975C27.0919 68.7672 27.2837 68.644 27.4126 68.4411C27.5415 68.2383 27.5808 67.9976 27.5385 67.782C27.34 67.8124 27.1483 67.9356 27.0194 68.1384Z" fill="#3C8F7C"/>
<path d="M23.8732 65.1265C23.3847 65.1327 22.9573 65.3523 22.6779 65.6933C22.9901 66.0268 23.4381 66.235 23.9266 66.2284C24.4151 66.2222 24.8425 66.0026 25.1219 65.6616C24.8097 65.3281 24.3616 65.1199 23.8732 65.1265" fill="#3C8F7C"/>
<path d="M24.6662 66.4391C24.1777 66.4457 23.7503 66.6648 23.4709 67.0063C23.783 67.3398 24.2312 67.5475 24.7196 67.5409C25.2081 67.5347 25.6355 67.3152 25.9149 66.9742C25.6027 66.6406 25.1546 66.4325 24.6662 66.4391" fill="#3C8F7C"/>
<path d="M25.9785 68.2277C25.6606 68.2321 25.3824 68.3747 25.2006 68.5969C25.4038 68.8138 25.6954 68.9493 26.0133 68.9449C26.3312 68.941 26.6094 68.798 26.7913 68.5762C26.5881 68.3588 26.2965 68.2238 25.9785 68.2277Z" fill="#3C8F7C"/>
<path d="M40.6963 81.0251C40.6963 80.4646 36.8882 81.1259 36.5714 80.3625C36.2546 79.5986 39.8329 79.5546 39.8329 78.5215C39.8329 77.4884 38.0093 78.2131 36.94 78.2131C35.8708 78.2131 39.0512 77.7704 39.0512 77.4052C39.0512 77.0396 37.9353 77.231 37.9353 76.8429C37.9353 76.4544 43.7951 76.1618 43.1094 75.2114C42.4236 74.261 39.2732 75.4882 38.4083 74.9967C37.5433 74.5048 43.0294 73.9688 43.1652 73.2376C43.3009 72.5067 39.1227 73.8641 38.5311 73.3383C37.9394 72.8125 45.1379 70.9223 44.8363 69.5332C44.5347 68.1441 39.3802 71.3121 38.0916 70.9711C36.803 70.6297 44.5896 65.7536 42.78 63.8537C40.9705 61.9538 37.5159 70.1426 36.3369 69.85C35.1579 69.5574 37.8133 64.6756 36.609 63.8264C35.4047 62.9772 31.9479 70.6996 31.7297 72.2854C31.5114 73.8712 31.0727 68.8745 29.1809 68.2898C27.2891 67.7054 29.1261 71.3856 28.797 72.5067C28.468 73.6274 26.9328 69.6309 24.8627 69.923C22.7926 70.2156 28.6051 73.8712 28.0294 74.9434C27.4536 76.0157 22.9653 71.3636 21.5588 72.6141C20.1524 73.8641 26.965 77.3335 26.5924 78.2835C26.2198 79.233 22.1326 77.6054 20.9557 78.6518C19.7787 79.6976 25.3465 80.3625 26.0847 80.3625C26.823 80.3625 29.6444 81.187 26.8889 81.0251C24.1334 80.8628 40.6963 81.5852 40.6963 81.0251" fill="#3C8F7C"/>
<path d="M29.8415 81.6724C29.8415 81.6724 25.2557 81.891 23.9206 81.1439C22.5854 80.3968 23.6392 79.8151 23.6392 79.8151C23.6392 79.8151 19.3987 79.7333 19.4093 78.8401C19.42 77.9469 20.4478 77.9984 20.4478 77.9984C20.4478 77.9984 18.3075 76.7052 18.7067 75.8996C19.3201 74.661 22.8063 76.8174 22.8063 76.8174C22.8063 76.8174 21.6635 75.6109 22.5869 75.3289C25.1219 74.5549 29.8415 81.6724 29.8415 81.6724" fill="#50BFA5"/>
<path d="M18.7067 75.8996C18.3075 76.7052 20.4478 77.9984 20.4478 77.9984C20.4478 77.9984 18.903 77.9803 19.1538 78.8489C19.4035 79.7139 23.2876 80.0061 23.2876 80.0061C23.2876 80.0061 21.9315 80.2415 23.2667 80.989C24.6018 81.7361 29.8415 81.6723 29.8415 81.6723L18.7067 75.8996" fill="#96D9C9"/>
<path d="M67.8957 59.4321C67.2206 59.2561 67.2022 59.3648 67.1166 59.3401C67.0156 59.3111 66.1989 58.3097 66.1989 58.3097C66.1989 58.3097 63.7684 55.3744 63.6442 55.2112L62.8774 51.4131L60.5751 51.3963C60.5751 51.3963 61.5369 55.4985 61.631 55.7013C61.725 55.9046 65.5767 59.4897 65.9029 59.8158C65.9029 59.8158 66.1137 60.346 66.2593 60.6738C66.4048 61.0016 66.7157 61.2409 66.7736 61.3263C66.782 61.3391 66.9948 61.6119 67.3656 61.8776C67.6849 62.1064 67.5161 61.75 67.5161 61.75C67.5161 61.75 67.0216 61.2247 67.0795 61.1934C67.124 61.1692 67.3735 61.4719 67.7235 61.7285C67.8136 61.7945 67.9027 61.8596 67.9853 61.9185C68.2022 62.073 68.3853 61.9912 68.1918 61.7945C68.1234 61.7254 68.0066 61.6127 67.9086 61.5441C67.8032 61.4702 67.7373 61.3694 67.6606 61.2942C67.5091 61.145 67.3963 61.0381 67.4072 61.0355C67.4215 61.0319 67.4176 60.9813 67.5161 61.0487C67.6344 61.1296 67.8363 61.354 68.0225 61.4601C68.1274 61.5203 68.3378 61.6585 68.3378 61.6585C68.3378 61.6585 68.7056 61.8116 68.7254 61.7949C68.8313 61.7034 68.6204 61.5335 68.4635 61.4693C68.3922 61.3813 68.166 61.2418 68.166 61.2418C68.166 61.2418 67.7908 60.8625 67.8566 60.8097C67.8849 60.7873 68.1492 60.9928 68.4487 61.1551C68.7269 61.3061 69.0407 61.4161 69.0887 61.369C69.1699 61.2893 68.8843 61.0909 68.8843 61.0909C68.8843 61.0909 68.6754 60.9624 68.61 60.9145C68.5333 60.8586 68.3205 60.6742 68.3205 60.6742C68.3205 60.6742 67.6176 59.9993 67.6844 59.9535C67.7512 59.9077 67.969 59.8457 68.0304 59.873C68.0923 59.8998 68.1695 60.0045 68.2314 60.0314C68.2927 60.0587 68.4051 60.045 68.4566 59.9777C68.5076 59.9104 68.2784 59.6737 68.2784 59.6737C68.2784 59.6737 68.0903 59.4827 67.8957 59.4321" fill="#F48C7F"/>
<path d="M64.0724 78.4863C64.0724 78.4863 63.9907 79.7971 63.9902 79.7997C63.96 79.966 63.8417 80.377 63.8417 80.5284C63.8417 81.0964 66.6333 80.0461 66.0077 79.794C65.9513 79.7716 65.6543 79.5991 65.636 79.4055C65.6073 79.1076 65.5345 78.5048 65.5345 78.5048L64.0724 78.4863Z" fill="#F7A491"/>
<path d="M66.0009 79.7887C66.0009 79.7887 65.3455 79.9625 65.0098 80.0061C64.6737 80.0496 64.2312 79.6836 63.9936 79.7826C63.7322 79.8912 63.7585 80.9626 63.7585 80.9626C63.7585 80.9626 67.2582 81.1492 68.2467 80.861C68.6383 80.7466 67.3413 80.1935 66.0009 79.7887" fill="#184655"/>
<path d="M57.9209 78.6122C57.9209 78.6122 57.8388 79.9229 57.8383 79.9256C57.8081 80.0919 57.6898 80.5028 57.6898 80.6542C57.6898 81.2222 60.4821 80.1715 59.8559 79.9198C59.7995 79.897 59.4148 79.596 59.396 79.4028C59.3673 79.1045 59.3827 78.6306 59.3827 78.6306L57.9209 78.6122Z" fill="#F7A491"/>
<path d="M59.849 79.9146C59.849 79.9146 59.1936 80.0884 58.858 80.1319C58.5224 80.1755 58.0794 79.8094 57.8423 79.9084C57.5805 80.0171 57.5701 80.9961 57.5701 80.9961C57.5701 80.9961 61.3112 81.2416 62.1908 81.011C62.5858 80.9076 61.1894 80.3194 59.849 79.9146" fill="#184655"/>
<path d="M62.3457 59.6952L63.5263 60.1564L66.0092 70.8932L65.9087 78.9426L63.9178 78.9844C63.9178 78.9844 62.9922 71.9435 62.9922 71.3979C62.9922 70.8519 58.7035 61.8486 58.7035 61.8486L62.3457 59.6952Z" fill="#355389"/>
<path d="M61.4343 60.2857C61.4343 60.2857 60.5646 68.5586 60.5646 69.953C60.5646 71.3473 59.8597 79.152 59.8597 79.152L57.8644 79.1415C57.8644 79.1415 57.7204 76.7628 57.5065 73.2631C57.4729 72.7148 57.5496 71.6091 57.5065 71.0415C57.1957 66.9601 56.5819 63.118 56.8754 61.5952C56.9224 61.3501 57.011 60.709 57.1838 60.5475C58.4906 59.3234 61.4343 60.2857 61.4343 60.2857" fill="#466EB6"/>
<path d="M63.8683 53.757L61.4538 53.6109C61.4538 53.6109 61.335 51.6564 61.335 50.7245C61.335 49.5937 60.9543 47.9261 61.1028 47.9578C61.5206 48.0458 62.2418 48.3938 62.5764 48.8162C63.7352 50.277 63.8683 53.757 63.8683 53.757" fill="#B75742"/>
<path d="M58.1481 47.9142C58.1481 47.9142 56.7711 48.0876 56.4087 48.3287C56.0008 48.6002 55.5479 49.2074 55.5479 49.2074C55.5479 49.2074 57.2383 56.4423 57.2413 57.6598C57.2433 58.6018 56.875 60.9145 56.875 60.9145C56.875 60.9145 61.9834 61.2062 63.9184 60.515C63.9184 60.515 63.3075 57.7645 63.3075 57.042C63.3075 56.32 62.5764 49.7521 62.4101 49.2936C62.2591 48.8774 61.9834 48.1294 61.0503 47.945C60.1168 47.7606 58.1481 47.9142 58.1481 47.9142" fill="#F47458"/>
<path d="M58.5239 45.9664L58.1834 47.9868C58.1834 47.9868 59.4277 50.3923 60.1707 50.1838C60.7943 50.0086 60.4107 47.8804 60.4107 47.8804C60.4107 47.8804 60.0707 46.7372 60.1726 46.1652C60.2746 45.5932 58.5239 45.9664 58.5239 45.9664Z" fill="#F7A491"/>
<path d="M60.1728 46.1652C60.2747 45.5932 58.5239 45.9664 58.5239 45.9664L58.4956 46.134C58.5471 46.2462 58.6095 46.3421 58.6857 46.4156C59.0768 46.794 59.6876 47.0215 60.2163 47.0386C60.1634 46.7302 60.1312 46.3998 60.1728 46.1652Z" fill="#F47458"/>
<path d="M58.2366 43.1081C58.1871 43.0918 57.8401 45.4093 58.4985 46.0469C59.1574 46.6844 60.4409 46.893 60.9013 46.391C61.4107 45.8357 61.3849 43.3448 60.3607 42.6892C59.3366 42.0332 58.2366 43.1081 58.2366 43.1081" fill="#F7A491"/>
<path d="M59.9711 41.4493C59.1792 41.595 58.6663 42.0297 58.4783 42.2154C58.1189 42.2536 57.6303 42.4323 57.1255 43.1834C56.5052 44.1074 56.9636 45.1308 57.6853 45.6328C58.4075 46.1353 58.3996 46.7179 58.3996 46.7179L58.5119 46.4152C58.5961 46.1877 58.6302 45.947 58.602 45.7085C58.5852 45.5655 58.551 45.4106 58.4852 45.2835C58.3119 44.9482 58.8584 44.7256 59.0118 44.4466C59.1297 44.2314 59.1356 43.74 59.3217 43.3849L59.5435 43.1138C59.5435 43.1138 60.0563 42.7552 60.5572 42.8564C61.0586 42.9576 60.9869 41.2632 59.9711 41.4493" fill="#13375B"/>
<path d="M58.9782 44.8589C58.9832 45.1413 58.8406 45.3728 58.659 45.3758C58.4774 45.3785 58.3265 45.1514 58.321 44.869C58.3156 44.5861 58.4586 44.3546 58.6402 44.352C58.8213 44.3489 58.9728 44.576 58.9782 44.8589Z" fill="#F7A491"/>
<path d="M60.0371 57.3223C60.1554 57.4169 60.3331 57.4209 60.4563 57.332L66.7503 52.811C66.7468 52.8058 66.7038 52.771 66.6998 52.7662L60.0683 56.8722C59.897 56.9782 59.8816 57.1987 60.0371 57.3223Z" fill="#184655"/>
<path d="M67.8323 51.4625C67.8323 51.4625 66.4467 52.6112 66.6823 52.8206C66.9184 53.0301 68.5179 51.8646 68.5179 51.8646C68.5179 51.8646 67.1709 52.6473 67.0407 52.5316C66.91 52.4159 67.8323 51.4625 67.8323 51.4625Z" fill="#184655"/>
<path d="M67.3205 50.2537C66.9285 50.2242 66.6072 50.5432 66.7097 50.8812C66.7498 51.0149 66.8522 51.1456 67.0646 51.2428C67.7442 51.5552 68.5179 52.1325 68.7095 52.7661C68.9016 53.3997 69.9985 53.2048 69.7243 52.3521C69.4817 51.597 68.5407 50.3457 67.3205 50.2537Z" fill="#F48C7F"/>
<path d="M63.6234 55.1082C63.6026 55.0048 62.9656 54.8376 62.5631 54.8988C62.1607 54.9595 60.6618 55.4558 60.6618 55.4558L56.2914 55.554C56.2914 55.554 56.3473 52.1466 56.6409 51.8734C56.9344 51.6006 56.5251 48.8338 56.0617 48.8462C54.6138 48.884 54.3654 53.1533 54.3654 54.4328C54.3654 55.7119 54.653 57.3822 54.9401 57.4473C55.2677 57.5216 60.4688 56.5761 60.4692 56.5756L61.6785 56.617C61.6785 56.617 62.8631 56.2087 63.0482 56.0441C63.2329 55.8796 63.6442 55.2112 63.6234 55.1082" fill="#F7A491"/>
<path d="M56.6626 48.2148C56.6626 48.2148 55.8563 48.3828 55.0237 49.2303C54.2664 50.0007 53.7892 54.3159 53.7892 54.3159L56.4042 54.6987L56.6131 52.6113L57.3115 51.6565L56.6626 48.2148" fill="#F47458"/>
<path d="M65.5156 66.829L60.4236 67.72C59.502 67.881 58.6278 67.2874 58.5402 66.4413L57.866 59.4216L63.5733 58.8469L65.5156 66.829" fill="#B0CFF4"/>
<path d="M56.9889 59.1945L56.8513 59.6855L59.1163 59.9266C59.1163 59.9266 59.4108 59.2658 59.2262 59.2842C59.0411 59.3032 57.866 59.4215 57.866 59.4215L56.9889 59.1945" fill="#B0CFF4"/>
<path d="M164.964 56.0899L164.987 55.506L164.46 55.158C164.4 55.1179 164.417 55.0343 164.489 55.0163L165.121 54.8557L165.33 54.3022C165.354 54.2388 165.449 54.2278 165.491 54.2828L165.858 54.7672L166.515 54.7734C166.59 54.7743 166.631 54.8508 166.585 54.9032L166.18 55.363L166.376 55.9205C166.399 55.9843 166.33 56.0428 166.26 56.0199L165.642 55.8197L165.107 56.1581C165.045 56.1968 164.961 56.1563 164.964 56.0899" fill="#F7CC7F"/>
<path d="M108.637 51.3841L109.158 50.9555L109.056 50.3307C109.045 50.2599 109.13 50.2075 109.201 50.2427L109.821 50.5507L110.457 50.2718C110.53 50.2401 110.612 50.296 110.596 50.3664L110.458 50.9854L110.953 51.4378C111.01 51.4892 110.975 51.5759 110.895 51.5843L110.19 51.6591L109.859 52.2174C109.822 52.2808 109.718 52.2786 109.684 52.2135L109.387 51.6402L108.687 51.5332C108.607 51.5214 108.578 51.4329 108.637 51.3841" fill="#F7CC7F"/>
<path d="M139.831 52.0674L139.672 51.359L138.925 51.0734C138.84 51.0413 138.834 50.9361 138.915 50.8957L139.624 50.5428L139.698 49.8234C139.707 49.7415 139.817 49.7037 139.885 49.7595L140.482 50.2497L141.275 50.0909C141.365 50.0724 141.44 50.1542 141.401 50.229L141.061 50.8851L141.476 51.5059C141.523 51.5768 141.459 51.6652 141.367 51.6556L140.56 51.5706L140.024 52.1136C139.963 52.1752 139.848 52.1484 139.831 52.0674" fill="#F7CC7F"/>
<path d="M88.0808 42.4327L87.9857 42.0086L87.5383 41.8374C87.4873 41.818 87.4838 41.7551 87.5323 41.7309L87.9565 41.5197L88.0016 41.089C88.0065 41.0397 88.0728 41.0172 88.1134 41.0507L88.4708 41.3442L88.946 41.2487C89 41.2381 89.0445 41.287 89.0212 41.3318L88.8173 41.7248L89.0663 42.0966C89.0945 42.1393 89.0559 42.1921 89.0009 42.1859L88.5173 42.1353L88.1966 42.4604C88.16 42.4974 88.0912 42.4811 88.0808 42.4327" fill="#F7CC7F"/>
<path d="M107.65 45.2008C107.275 45.5343 106.667 45.5343 106.292 45.2008C105.917 44.8677 105.917 44.3269 106.292 43.9939C106.667 43.6603 107.275 43.6603 107.65 43.9939C108.025 44.3269 108.025 44.8677 107.65 45.2008Z" fill="#F7CC7F"/>
<path d="M108.627 42.5264C108.455 42.7275 108.252 42.9246 108.112 43.1451C107.992 43.3347 108.281 43.5354 108.457 43.3783C108.671 43.186 108.841 42.9427 109.023 42.7266C109.097 42.6391 109.035 42.4996 108.938 42.4503C108.819 42.3905 108.702 42.4393 108.627 42.5264Z" fill="#F7CC7F"/>
<path d="M106.649 42.1172C106.717 42.4402 106.723 42.7618 106.749 43.0883C106.769 43.3431 107.156 43.3352 107.187 43.0883C107.233 42.7337 107.173 42.3606 107.101 42.0121C107.078 41.9016 106.931 41.837 106.816 41.8638C106.686 41.8942 106.626 42.0068 106.649 42.1172Z" fill="#F7CC7F"/>
<path d="M105.748 43.5244C105.839 43.5389 105.911 43.5002 105.942 43.4232C106.019 43.237 105.833 43.0597 105.7 42.9334C105.562 42.8019 105.398 42.6897 105.223 42.5995C104.965 42.4662 104.734 42.8252 104.993 42.9594C105.501 43.2212 105.484 43.4821 105.748 43.5244" fill="#F7CC7F"/>
<path d="M104.54 44.8193C105.032 44.7678 105.286 44.8404 105.432 44.6855C105.518 44.5944 105.497 44.4879 105.392 44.4197C105.268 44.3387 105.094 44.377 104.951 44.3819C104.813 44.3863 104.677 44.3924 104.54 44.4074C104.416 44.421 104.308 44.4923 104.308 44.6133C104.308 44.7145 104.415 44.832 104.54 44.8193" fill="#F7CC7F"/>
<path d="M105.201 45.5906C105.073 45.7952 105.018 45.8608 105.007 46.006C104.998 46.1318 105.186 46.237 105.306 46.1604C105.447 46.0711 105.471 46.0095 105.606 45.7948C105.667 45.6971 105.629 45.5682 105.519 45.5128C105.41 45.4578 105.263 45.493 105.201 45.5906" fill="#F7CC7F"/>
<path d="M106.426 46.0293C106.46 46.4781 106.448 46.5832 106.565 46.6796C106.633 46.7364 106.768 46.754 106.834 46.6796C106.955 46.5414 106.921 46.4354 106.882 46.0293C106.871 45.9206 106.784 45.8269 106.654 45.8269C106.537 45.8269 106.418 45.9197 106.426 46.0293" fill="#F7CC7F"/>
<path d="M108.546 46.296C108.714 46.3532 108.88 46.1503 108.784 46.0218C108.691 45.8986 108.63 45.8713 107.995 45.4203C107.897 45.3508 107.762 45.335 107.666 45.4203C107.585 45.4925 107.567 45.6425 107.666 45.7125C108.324 46.1824 108.378 46.2383 108.546 46.296Z" fill="#F7CC7F"/>
<path d="M108.711 44.6921C109.319 44.7383 109.305 44.825 109.614 44.7898C109.755 44.7735 109.812 44.576 109.703 44.4981C109.562 44.3987 109.508 44.3842 109.219 44.3362C109.051 44.3081 108.882 44.2887 108.711 44.2755C108.585 44.2654 108.477 44.378 108.477 44.4836C108.477 44.6041 108.584 44.6825 108.711 44.6921" fill="#F7CC7F"/>
<path d="M147.764 50.486C147.764 50.486 147.985 50.3149 148.281 50.4077C148.544 50.4909 148.651 50.7716 148.565 51.0325C148.466 51.3339 148.1 51.6129 147.356 51.7212C146.816 51.2085 146.686 50.7738 146.786 50.472C146.872 50.2115 147.127 50.0447 147.391 50.1279C147.686 50.2207 147.764 50.486 147.764 50.486" fill="#F48C7F"/>
<path d="M145.547 49.9197C145.788 50.0447 145.989 50.1318 146.19 50.2075C146.257 50.2321 146.363 50.2968 146.433 50.2528C146.469 50.2299 146.488 50.193 146.473 50.1503C146.447 50.0728 146.338 50.0588 146.271 50.0333C146.067 49.9567 145.84 49.8595 145.617 49.7468C145.576 49.7257 145.52 49.7565 145.502 49.8005C145.481 49.8507 145.505 49.8977 145.547 49.9197" fill="#F48C7F"/>
<path d="M148.737 51.7638C148.834 51.8021 148.931 51.8386 149.029 51.8756C149.122 51.9108 149.226 51.9702 149.327 51.9693C149.402 51.9688 149.444 51.8782 149.386 51.8258C149.31 51.7581 149.195 51.7343 149.101 51.6996C149.003 51.663 148.906 51.6261 148.807 51.5909C148.702 51.5539 148.633 51.7224 148.737 51.7638" fill="#F48C7F"/>
<path d="M145.918 51.6296C146.126 51.4558 146.301 51.4443 146.448 51.403C146.526 51.381 146.529 51.2719 146.45 51.256C146.232 51.2129 145.983 51.3436 145.813 51.4888C145.724 51.5653 145.828 51.7052 145.918 51.6296" fill="#F48C7F"/>
<path d="M146.829 52.6081C146.866 52.4986 146.923 52.3991 146.999 52.3124C147.045 52.2592 147.228 52.1316 147.126 52.056C147.03 51.9842 146.898 52.1523 146.842 52.2231C146.765 52.3173 146.706 52.4277 146.667 52.543C146.629 52.6565 146.789 52.7225 146.829 52.6081Z" fill="#F48C7F"/>
<path d="M147.91 52.2645C147.948 52.3274 147.986 52.3903 148.023 52.4533C148.062 52.5157 148.089 52.5967 148.167 52.6081C148.211 52.6147 148.243 52.5778 148.253 52.5368C148.272 52.4634 148.202 52.3886 148.167 52.3314C148.129 52.2689 148.091 52.2064 148.053 52.144C148.027 52.1026 147.964 52.1022 147.928 52.1325C147.886 52.1677 147.885 52.2227 147.91 52.2645" fill="#F48C7F"/>
<path d="M147.342 49.5898C147.342 48.9772 147.347 48.9759 147.322 48.9161C147.297 48.8549 147.207 48.8553 147.18 48.9222C147.155 48.9878 147.16 48.9772 147.163 49.6219C147.163 49.6734 147.218 49.7077 147.263 49.6998C147.316 49.6901 147.342 49.6412 147.342 49.5898Z" fill="#F48C7F"/>
<path d="M148.233 49.9228C148.3 49.8463 148.359 49.764 148.409 49.6751C148.456 49.5928 148.539 49.4722 148.486 49.3825C148.475 49.3636 148.445 49.3521 148.423 49.3578C148.335 49.382 148.303 49.5061 148.259 49.5823C148.211 49.665 148.156 49.7429 148.096 49.8164C148.064 49.8551 148.075 49.9171 148.11 49.9444C148.151 49.9757 148.2 49.9603 148.233 49.9228" fill="#F48C7F"/>
<path d="M149.454 50.4882C149.484 50.453 149.469 50.4028 149.441 50.3764C149.386 50.3223 149.27 50.3588 149.2 50.3729C149.118 50.3896 149.038 50.4143 148.959 50.4446C148.914 50.4618 148.894 50.5252 148.91 50.5679C148.93 50.6176 148.979 50.6277 149.025 50.6123C149.327 50.5098 149.379 50.5749 149.454 50.4882Z" fill="#F48C7F"/>
<path d="M160.831 51.0642C160.759 51.5662 161.347 51.9644 161.87 51.9332C162.448 51.8984 162.939 51.4769 163.023 50.9718C163.115 50.4253 162.745 49.9884 162.173 49.9484C161.617 49.9092 161.261 50.3492 161.422 50.7936C161.537 51.1121 161.864 51.2309 162.029 51.1429C162.157 51.0743 162.15 50.9018 161.994 50.8715C161.932 50.8591 161.867 50.8899 161.834 50.9326C161.698 50.8842 161.569 50.6642 161.657 50.4262C161.769 50.1226 162.201 50.1054 162.469 50.2471C162.811 50.4271 162.864 50.8156 162.739 51.1249C162.608 51.4501 162.249 51.7057 161.858 51.7303C161.415 51.7585 161.026 51.4567 160.99 51.0646C160.982 50.9722 160.843 50.9744 160.831 51.0642" fill="#50BFA5"/>
<path d="M152.926 50.916L152.214 50.7716L152.152 51.2002L151.921 51.1734L152.016 50.5191L152.724 50.6625L152.788 50.1574L153.437 50.2779L153.583 49.7666L153.809 49.8177L153.607 50.5213L152.991 50.4064L152.926 50.916" fill="#F7CC7F"/>
<path d="M117.299 50.2044L116.94 49.4789L116.421 49.7363L116.283 49.5158L117.074 49.1225L117.431 49.8436L118.036 49.5317L118.375 50.1851L119.045 49.94L119.153 50.1741L118.231 50.5111L117.908 49.8898L117.299 50.2044Z" fill="#F7CC7F"/>
<path d="M82.9342 81.11C82.8267 81.11 82.7307 81.0427 82.7084 80.9455L79.2475 65.8465C79.2218 65.7356 79.3025 65.6269 79.4272 65.6045C79.5524 65.582 79.6742 65.6537 79.6994 65.7646L83.1604 80.8636C83.1861 80.975 83.1054 81.0832 82.9807 81.1056C82.9648 81.1087 82.9495 81.11 82.9342 81.11Z" fill="#13375B"/>
<path d="M70.5187 81.11C70.5019 81.11 70.485 81.1083 70.4682 81.1048C70.3435 81.0801 70.2652 80.9706 70.293 80.8601L74.2089 65.3053C74.2366 65.1949 74.3603 65.1253 74.4846 65.15C74.6088 65.1746 74.687 65.2846 74.6593 65.3951L70.7434 80.9494C70.7197 81.0449 70.6241 81.11 70.5187 81.11Z" fill="#13375B"/>
<path d="M69.7603 60.438C69.79 63.9404 72.9927 66.7718 76.9398 66.7718C80.8875 66.7718 84.0901 63.9404 84.1193 60.438H69.7603Z" fill="#F47458"/>
<path d="M82.9402 60.438C82.3927 63.4797 79.591 65.4069 76.0147 65.4069C74.3094 65.4069 72.5799 65.2753 71.3483 64.3927C72.6645 65.8434 74.6801 66.7718 76.9398 66.7718C80.8874 66.7718 84.0901 63.9404 84.1193 60.438H82.9402Z" fill="#B75742"/>
<path d="M84.1204 60.8489H69.4475V60.5128C69.4475 60.4446 69.5094 60.3896 69.5861 60.3896H84.1204V60.8489Z" fill="#B75742"/>
<path d="M84.8073 60.4573C84.7291 60.7952 84.3573 61.0126 83.9772 60.9426C83.5971 60.8727 83.353 60.5422 83.4312 60.2048C83.5099 59.8668 83.8817 59.6495 84.2613 59.7194C84.6415 59.789 84.886 60.1194 84.8073 60.4573Z" fill="#184655"/>
<path d="M84.5677 60.4133C84.5162 60.6333 84.2742 60.775 84.0267 60.7292C83.7792 60.6839 83.6203 60.4688 83.6713 60.2488C83.7223 60.0288 83.9643 59.8871 84.2118 59.9325C84.4593 59.9782 84.6186 60.1934 84.5677 60.4133" fill="#13375B"/>
<path d="M81.2036 73.355H72.4764V72.567H81.2036V73.355Z" fill="#13375B"/>
<path d="M77.4843 59.84H71.7294C71.5191 59.84 71.3483 59.6886 71.3483 59.5016V59.389C71.3483 59.202 71.5191 59.0502 71.7294 59.0502H77.4843C77.6947 59.0502 77.865 59.202 77.865 59.389V59.5016C77.865 59.6886 77.6947 59.84 77.4843 59.84Z" fill="#F48C7F"/>
<path d="M77.4843 59.84H73.3986C73.1882 59.84 73.0175 59.6886 73.0175 59.5016V59.389C73.0175 59.202 73.1882 59.0502 73.3986 59.0502H77.4843C77.6947 59.0502 77.8649 59.202 77.8649 59.389V59.5016C77.8649 59.6886 77.6947 59.84 77.4843 59.84Z" fill="#F79C8D"/>
<path d="M81.925 59.818H78.9035C78.6991 59.818 78.5332 59.6706 78.5332 59.4889V59.3793C78.5332 59.1976 78.6991 59.0502 78.9035 59.0502H81.925C82.1294 59.0502 82.2952 59.1976 82.2952 59.3793V59.4889C82.2952 59.6706 82.1294 59.818 81.925 59.818Z" fill="#F79C8D"/>
<path d="M82.8859 60.3896H70.8741C70.7197 60.3896 70.5944 60.2783 70.5944 60.141V60.0583C70.5944 59.9205 70.7197 59.8092 70.8741 59.8092H82.8859C83.0403 59.8092 83.1656 59.9205 83.1656 60.0583V60.141C83.1656 60.2783 83.0403 60.3896 82.8859 60.3896Z" fill="#184655"/>
<path d="M131.019 50.7364C131.019 50.7364 131.29 51.2024 131.865 51.135C132.439 51.0677 132.7 49.7834 132.864 49.4243C133.028 49.0653 133.237 49.0675 133.237 49.0675C133.237 49.0675 131.314 48.4048 130.499 49.4336C130.014 50.0474 130.4 50.4667 131.019 50.7364" fill="#50BFA5"/>
<path d="M132.47 49.6707C132.353 49.7402 132.054 49.8973 131.889 49.91C132.212 49.6425 132.57 49.39 132.897 49.1739C132.706 49.272 132.467 49.4053 132.222 49.5598C132.111 49.4238 132.327 49.1642 132.329 49.1616C132.344 49.144 132.314 49.1229 132.299 49.1409C132.289 49.1528 132.063 49.4229 132.19 49.5792C132.079 49.6496 131.968 49.7235 131.858 49.8005C131.662 49.5563 131.911 49.1435 131.914 49.1391C131.919 49.1312 131.916 49.1207 131.906 49.1163C131.897 49.1114 131.885 49.1141 131.88 49.1224C131.869 49.1409 131.615 49.5607 131.828 49.8216C131.713 49.9034 131.601 49.9879 131.496 50.0737C131.204 49.7961 131.416 49.243 131.419 49.2373C131.427 49.2161 131.39 49.2043 131.382 49.2254C131.373 49.25 131.16 49.8049 131.469 50.0962C131.339 50.2044 131.222 50.314 131.125 50.4222C130.786 50.1802 130.833 49.6474 130.834 49.6416C130.835 49.632 130.828 49.624 130.817 49.6227C130.807 49.6218 130.797 49.6284 130.796 49.6377C130.794 49.6619 130.746 50.1969 131.101 50.4486C131.061 50.4953 131.024 50.5419 130.992 50.5877C130.644 51.1012 130.214 50.8855 130.153 50.8789C130.119 50.8662 130.078 50.8781 130.059 50.9075C129.979 51.0352 130.379 51.1082 130.586 51.0774C130.932 51.0171 131.044 50.8182 131.222 50.5797C131.685 50.765 132.057 50.5595 132.061 50.5573C132.062 50.5569 132.062 50.556 132.063 50.5555C132.07 50.5503 132.071 50.541 132.066 50.534C132.06 50.5261 132.048 50.5239 132.039 50.5287C132.036 50.5309 131.684 50.7241 131.243 50.5511C131.319 50.4508 131.376 50.3866 131.477 50.2849C131.775 50.3782 132.219 50.1089 132.239 50.0966C132.24 50.0957 132.24 50.0953 132.241 50.0948C132.248 50.0891 132.249 50.0799 132.243 50.0728C132.237 50.0649 132.225 50.0632 132.217 50.0684C132.212 50.0711 131.785 50.3302 131.504 50.2572C131.611 50.1516 131.727 50.0464 131.849 49.9439C132.05 49.9598 132.472 49.7107 132.491 49.6993C132.499 49.6944 132.502 49.6839 132.496 49.676C132.49 49.668 132.478 49.6658 132.47 49.6707" fill="#3C8F7C"/>
<path d="M44.6342 19.5901H37.1929V17.0553H44.6342V19.5901Z" fill="#F7CC7F"/>
<path d="M37.4775 24.0258H30.0361V21.4909H37.4775V24.0258Z" fill="#F7CC7F"/>
<path d="M47.6798 23.1972H40.0638V21.0522H47.6798V23.1972Z" fill="#F7CC7F"/>
<path d="M54.8153 20.4675H47.4179V18.3229H54.8153V20.4675Z" fill="#F7CC7F"/>
<path d="M82.1832 26.6895H76.1666V24.7737H82.1832V26.6895Z" fill="#F7CC7F"/>
<path d="M82.9729 21.4254H76.9567V19.5096H82.9729V21.4254Z" fill="#F7CC7F"/>
<path d="M57.8234 25.9415H51.8072V24.0258H57.8234V25.9415Z" fill="#F7CC7F"/>
<path d="M117.933 55.9262C115.811 55.6173 113.918 56.3064 113.705 57.4653C113.598 58.0443 113.932 58.6317 114.557 59.1122L113.381 60.6953L115.438 59.631C115.939 59.8576 116.524 60.0292 117.161 60.122C119.283 60.4304 121.176 59.7414 121.389 58.5829C121.602 57.424 120.055 56.2346 117.933 55.9262" fill="#FAE0B2"/>
<path d="M116.054 58.0197C116.13 58.6823 116.796 59.165 117.541 59.0977C118.287 59.0299 118.83 58.4381 118.753 57.775C118.678 57.1124 118.012 56.6301 117.266 56.6975C116.521 56.7652 115.979 57.357 116.054 58.0197Z" fill="#F7CC7F"/>
<path d="M118.147 58.0224C118.188 58.3765 117.898 58.6929 117.499 58.7289C117.1 58.7655 116.745 58.5072 116.704 58.153L118.147 58.0224" fill="#EFEFEF"/>
<path d="M100.141 55.7572C100.141 55.7572 99.3802 54.252 99.4143 53.9964C99.449 53.7403 99.7435 53.6122 99.9148 53.9048C100.086 54.1974 100.148 54.5204 100.278 54.4047C100.408 54.2885 99.9489 53.0763 100.47 52.9971C100.991 52.9179 100.655 54.5508 100.861 54.5142C101.067 54.4777 101.176 52.7349 101.731 52.8752C102.286 53.0152 101.368 54.6423 101.58 54.6423C101.793 54.6423 102.136 53.1005 102.753 53.3381C103.369 53.5757 101.975 54.7611 102.197 54.9591C102.42 55.1571 103.308 53.7038 103.877 54.1182C104.446 54.5323 102.473 55.3722 102.547 55.4378C102.621 55.5029 104.233 54.4592 104.59 54.8552C104.946 55.2512 103.34 55.4567 103.438 55.5865C103.536 55.7159 104.359 55.5007 104.308 55.7572C104.258 56.0133 102.513 56.0067 102.513 56.0067L100.141 55.7572" fill="#3C8F7C"/>
<path d="M98.8604 46.5309C99.042 45.7983 99.2192 45.0613 98.7416 44.2565C98.355 43.6053 97.6862 43.2309 96.9125 43.149C94.7202 42.918 95.189 44.737 92.1249 45.1308C91.173 45.2531 90.2885 45.371 89.4935 45.7917C88.058 46.552 87.5165 47.7708 88.4684 49.757C90.7993 54.6203 96.3765 50.3941 97.2269 49.5339C98.0713 48.6807 98.744 47.0021 98.8604 46.5309" fill="#13375B"/>
<path d="M90.0935 77.2508C90.0935 77.2508 89.9376 78.6597 89.5361 78.9184C89.1346 79.1771 88.5995 80.1341 88.8673 80.6516C88.951 80.813 89.1178 80.9068 89.3084 80.9587C89.8722 81.1131 90.4722 80.8531 90.7123 80.3744C90.8464 80.1064 90.9638 79.7496 90.9875 79.2999C91.0479 78.1554 91.4489 77.5733 91.4489 77.5733L90.0935 77.2508Z" fill="#F7A491"/>
<path d="M96.2602 77.8276C96.2602 77.8276 96.3864 79.2488 96.2839 79.7113C96.229 79.9586 95.9226 80.4676 96.0632 80.7004C96.2037 80.9332 96.3641 80.9917 96.3641 80.9917L100.004 81.0436C100.202 81.0462 100.072 80.9332 99.9118 80.8289C99.6499 80.6582 99.4386 80.5455 98.603 80.1865C98.5486 80.1632 98.3501 80.0514 98.2783 80.0127C98.0966 79.9141 97.9145 79.7592 97.7575 79.6044C97.4962 79.3465 97.4734 78.0943 97.4734 78.0943L96.2602 77.8276Z" fill="#F7A491"/>
<path d="M99.1048 58.931C99.1048 58.931 99.5632 61.2392 99.2622 62.7524C98.9613 64.2655 97.5169 78.2918 97.5169 78.2918L95.9117 78.3719C95.9117 78.3719 95.5751 72.5129 95.6355 71.698C95.6954 70.8836 96.172 69.52 96.172 69.52L96.0122 64.7896L98.0376 58.5746L99.1048 58.931" fill="#13375B"/>
<path d="M94.387 58.4456C94.387 58.4456 93.1228 60.1335 92.8218 61.53C92.5209 62.927 93.0426 67.2197 92.464 69.0501C92.1506 70.041 90.9627 71.5708 90.782 72.8512C90.6013 74.1316 89.893 77.4858 89.893 77.4858L91.4977 77.7678L95.227 69.3915L98.1519 61.8209L98.9013 57.9216L94.387 58.4456" fill="#355389"/>
<path d="M95.4103 48.8426C95.4103 48.8426 94.3035 48.9544 93.6411 49.5946C92.9793 50.2348 94.7113 55.3806 94.8316 56.1955C94.9524 57.0104 93.8451 58.9112 93.8451 58.9112C93.8451 58.9112 97.9813 59.5905 99.105 58.931C99.105 58.931 99.2258 53.0719 99.105 52.4898C98.9847 51.9077 97.9813 49.5409 97.7408 49.3082C97.5002 49.0754 95.4103 48.8426 95.4103 48.8426Z" fill="#FAE0B2"/>
<path d="M95.9676 46.8587C95.9676 46.8587 95.9587 46.9022 95.9434 46.9766C95.8686 47.3339 95.581 48.5179 95.387 48.8435C95.1523 49.2369 96.1904 50.4913 97.1893 50.3382C97.4863 50.2929 96.9378 49.1854 96.9641 49.0684C97.0146 48.8435 97.0829 48.5373 97.1532 48.2236C97.1928 48.0462 97.2324 47.8667 97.27 47.6977C97.3769 47.2181 97.464 46.8257 97.464 46.8257L95.9676 46.8587" fill="#F7A491"/>
<path d="M95.9434 46.9766C95.9587 46.9023 95.9676 46.8587 95.9676 46.8587L97.4639 46.8257C97.4639 46.8257 97.3768 47.2182 97.2699 47.6978C97.2328 47.8659 97.1932 48.044 97.1536 48.2205C96.9224 48.1901 96.6814 48.0907 96.4388 47.9024C96.175 47.6978 96.0023 47.4514 95.8978 47.1882C95.9161 47.1046 95.9315 47.0321 95.9434 46.9766" fill="#F47458"/>
<path d="M96.8675 43.6969C96.8675 43.6969 96.2572 43.7721 95.8152 44.2794C95.3731 44.7867 94.8965 46.3558 95.9948 47.2085C97.0932 48.0617 98.1787 47.0963 98.3396 46.0724C98.5005 45.0485 98.4678 43.6599 96.8675 43.6969Z" fill="#F7A491"/>
<path d="M98.66 45.8194C98.5907 46.0662 98.4085 46.233 98.2535 46.192C98.0986 46.1507 98.0288 45.9175 98.0981 45.6707C98.1674 45.4238 98.3491 45.2571 98.5045 45.298C98.6595 45.3394 98.7293 45.573 98.66 45.8194Z" fill="#F7A491"/>
<path d="M97.0536 43.6731C97.0536 43.6731 96.1112 45.1651 95.437 45.2338C94.7628 45.3028 94.6742 46.0957 94.6742 46.0957C94.6742 46.0957 94.9153 44.2688 95.583 43.9164C96.2503 43.5644 97.0536 43.6731 97.0536 43.6731" fill="#13375B"/>
<path d="M95.6573 45.5893C95.7122 45.8546 95.6018 46.0975 95.4113 46.1323C95.2202 46.1671 95.0212 45.9805 94.9663 45.7156C94.9113 45.4503 95.0217 45.2074 95.2128 45.1726C95.4033 45.1378 95.6028 45.3244 95.6573 45.5893" fill="#F7A491"/>
<path d="M90.8217 80.1222C89.947 80.2635 89.3648 79.8098 89.0624 79.4702C88.8401 79.8552 88.7035 80.3352 88.8673 80.6516C89.0114 80.9301 89.4034 81.0062 89.7346 81.0172C90.0851 81.0286 90.4128 80.8658 90.5866 80.5952C90.6677 80.469 90.7514 80.3114 90.8217 80.1222" fill="#13375B"/>
<path d="M98.2777 80.0122C97.315 80.2314 96.6032 80.0822 96.2052 79.9401C96.1028 80.1979 95.9666 80.5218 96.0389 80.7088C96.127 80.9371 96.2527 80.989 96.3641 80.9917C97.2432 81.0119 99.585 81.0401 100.256 81.0476C100.349 81.0489 100.401 80.9516 100.341 80.8878C100.175 80.7118 98.3495 80.051 98.2777 80.0122" fill="#13375B"/>
<path d="M93.844 49.4085C93.844 49.4085 93.3139 49.6321 92.8481 50.597C92.4051 51.5139 92.0571 54.7606 92.0571 54.7606L94.3078 54.9344L94.9246 53.6963C95.5611 52.419 95.3968 50.9322 94.4697 49.8045C94.2222 49.5036 93.9945 49.3219 93.844 49.4085" fill="#F7CC7F"/>
<path d="M103.22 55.2301H99.5198C99.2203 55.2301 98.9777 55.3502 98.9777 55.4981C98.9777 55.6464 99.2203 55.7665 99.5198 55.7665H103.22C103.52 55.7665 103.762 55.6464 103.762 55.4981C103.762 55.3502 103.52 55.2301 103.22 55.2301Z" fill="#F48C7F"/>
<path d="M103.22 54.7241H99.5198C99.2203 54.7241 98.9777 54.8442 98.9777 54.9925C98.9777 55.1403 99.2203 55.2604 99.5198 55.2604H103.22C103.52 55.2604 103.762 55.1403 103.762 54.9925C103.762 54.8442 103.52 54.7241 103.22 54.7241Z" fill="#F48C7F"/>
<path d="M99.403 54.8967L97.8882 55.2724C98.005 55.6446 98.4387 55.8615 98.857 55.7576C99.2753 55.6538 99.5198 55.2684 99.403 54.8967Z" fill="#B75742"/>
<path d="M98.9962 55.1576C99.0021 55.1424 98.9903 55.1249 98.9695 55.1188C98.9493 55.1131 98.8871 55.1171 98.8827 55.1328C98.8782 55.1485 98.9286 55.169 98.9488 55.1751C98.969 55.1812 98.9903 55.1733 98.9962 55.1576Z" fill="#F7CC7F"/>
<path d="M99.2004 55.0883C99.1979 55.0722 99.1787 55.0608 99.1575 55.0634C99.1364 55.0661 99.0827 55.0935 99.0866 55.1097C99.0901 55.1254 99.1452 55.1245 99.1664 55.1219C99.1876 55.1197 99.2028 55.1044 99.2004 55.0883" fill="#F7CC7F"/>
<path d="M99.0659 55.4757C99.0772 55.4626 99.0723 55.443 99.055 55.4316C99.0378 55.4203 98.9777 55.4068 98.9678 55.4203C98.958 55.4343 98.9979 55.4674 99.0151 55.4788C99.0324 55.4901 99.055 55.4888 99.0659 55.4757" fill="#F7CC7F"/>
<path d="M98.8881 55.4528C98.9059 55.4488 98.9168 55.4307 98.9119 55.4123C98.9074 55.3933 98.8708 55.3484 98.8535 55.3533C98.8356 55.3581 98.8421 55.407 98.8465 55.4255C98.8515 55.444 98.8703 55.4563 98.8881 55.4528Z" fill="#F7CC7F"/>
<path d="M98.6466 55.5509C98.6644 55.5474 98.6753 55.5293 98.6703 55.5104C98.6659 55.4919 98.6292 55.4465 98.6119 55.4514C98.5941 55.4562 98.6005 55.5051 98.605 55.524C98.6099 55.5425 98.6287 55.5548 98.6466 55.5509" fill="#F7CC7F"/>
<path d="M98.5802 55.4052C98.5976 55.4113 98.6179 55.4017 98.6259 55.3841C98.6343 55.3665 98.6333 55.3106 98.6155 55.3058C98.5981 55.301 98.5718 55.3445 98.5639 55.3621C98.5559 55.3797 98.5634 55.399 98.5802 55.4052Z" fill="#F7CC7F"/>
<path d="M98.2585 55.4259C98.2719 55.4378 98.2947 55.4356 98.3096 55.422C98.3244 55.4083 98.3477 55.3568 98.3334 55.3463C98.3195 55.3357 98.2764 55.367 98.2615 55.3806C98.2466 55.3942 98.2451 55.4145 98.2585 55.4259" fill="#F7CC7F"/>
<path d="M98.2892 55.3112C98.2946 55.3269 98.3163 55.3344 98.3365 55.3282C98.3567 55.3221 98.4035 55.2859 98.3966 55.2711C98.3892 55.2558 98.3355 55.2662 98.3153 55.2724C98.2946 55.2785 98.2832 55.2959 98.2892 55.3112" fill="#F7CC7F"/>
<path d="M103.59 56.5026H95.9325V55.7572H104.308V55.8633C104.308 56.2162 103.987 56.5026 103.59 56.5026" fill="#13375B"/>
<path d="M99.7879 56.4454C99.7923 56.4691 100.143 56.3517 100.473 56.2619C100.804 56.1726 101.263 55.9099 101.285 55.9816C101.302 56.0375 101.04 56.2276 100.768 56.3587C100.851 56.3464 100.898 56.353 100.878 56.3921C100.795 56.5541 99.9507 56.976 99.0003 57.123C98.0495 57.27 92.17 57.6506 92.1754 56.8018C92.1774 56.4894 92.4116 55.4571 92.4917 54.794L94.2004 54.926L94.0297 55.8307C95.5468 56.1677 97.5926 56.3033 97.6956 56.3077C97.9732 56.3191 98.2633 56.0041 98.3445 55.9548C98.7885 55.6842 99.3666 55.3445 99.5612 55.4237C99.7562 55.5024 99.3033 55.6982 99.1028 55.9108C98.9023 56.1237 100.16 56.2298 100.988 55.6837C101.816 55.1377 101.089 56.0428 100.755 56.1387C100.42 56.2346 99.7799 56.4071 99.7879 56.4454" fill="#F7A491"/>
<path d="M123.193 50.8504L123.218 50.219L122.648 49.8423C122.583 49.7992 122.602 49.709 122.679 49.6892L123.363 49.5154L123.589 48.9166C123.615 48.8484 123.718 48.836 123.763 48.8959L124.16 49.4199L124.871 49.4265C124.951 49.4274 124.996 49.5101 124.946 49.5669L124.508 50.0645L124.721 50.6673C124.745 50.736 124.67 50.7993 124.594 50.7747L123.927 50.5582L123.347 50.9243C123.281 50.9656 123.19 50.9221 123.193 50.8504Z" fill="#F47458"/>
<path d="M86.6001 13.2185H25.3917V11.1166H86.6001V13.2185Z" fill="#F7CC7F"/>
<path d="M103.359 55.6354C103.177 56.0151 102.752 55.6763 102.752 55.6763C102.752 55.6763 102.781 55.9843 102.348 55.9843C101.914 55.9843 102.187 55.5324 102.187 55.5324C102.187 55.5324 101.742 55.6556 101.836 55.1676C101.929 54.6792 102.539 54.9978 102.539 54.9978C102.539 54.9978 102.631 54.6696 103.016 54.7967C103.4 54.923 103.092 55.1967 103.092 55.1967C103.092 55.1967 103.541 55.2552 103.359 55.6354V55.6354ZM103.214 55.1509C103.214 55.1509 103.6 54.8082 103.118 54.6493C102.636 54.4905 102.52 54.9019 102.52 54.9019C102.52 54.9019 101.756 54.5024 101.638 55.1148C101.522 55.7269 102.079 55.5724 102.079 55.5724C102.079 55.5724 101.736 56.1392 102.28 56.1392C102.824 56.1392 102.787 55.7524 102.787 55.7524C102.787 55.7524 103.321 56.1774 103.549 55.7009C103.777 55.2244 103.214 55.1509 103.214 55.1509Z" fill="#F7CC7F"/>
<path d="M181.09 81.8325H23.2667V80.989H181.09V81.8325Z" fill="#3C8F7C"/>
<path d="M167.48 73.4958C166.347 72.1648 164.836 71.4322 163.227 71.4322C161.616 71.4322 160.106 72.1648 158.973 73.4958C157.852 74.8128 157.085 76.5653 157.235 78.4172C157.287 79.0649 157.653 80.989 157.653 80.989H158.294C158.055 80.1728 157.906 79.4314 157.838 78.4172C157.602 74.9034 160.255 72.0333 163.227 72.0333C166.198 72.0333 168.615 74.8972 168.615 78.4172C168.615 79.3294 168.445 80.2032 168.153 80.989H168.796C169.068 80.1825 169.218 79.3096 169.218 78.4172C169.218 76.5604 168.601 74.8128 167.48 73.4958Z" fill="#184655"/>
<path d="M139.945 73.4536C138.812 72.1499 137.301 71.4322 135.692 71.4322C134.081 71.4322 132.571 72.1499 131.438 73.4536C130.317 74.7437 129.7 76.4557 129.7 78.2742C129.7 79.2233 129.867 80.1429 130.188 80.989H130.838C130.495 80.1676 130.303 79.2466 130.303 78.2742C130.303 74.8264 132.72 72.021 135.692 72.021C138.663 72.021 141.08 74.8264 141.08 78.2742C141.08 79.2466 140.888 80.1676 140.545 80.989H141.195C141.515 80.1429 141.683 79.2233 141.683 78.2742C141.683 76.4557 141.066 74.7437 139.945 73.4536" fill="#184655"/>
<path d="M165.543 71.4204H164.126V68.8697H165.543V71.4204" fill="#13375B"/>
<path d="M168.735 69.4619L139.072 69.2921L138.961 64.3931L170.07 64.2822L168.735 69.4619" fill="#184655"/>
<path d="M165.748 72.3413H131.468V70.979H165.748V72.3413Z" fill="#184655"/>
<path d="M146.991 65.6933C147.563 65.9243 147.505 66.0203 147.578 66.0475C147.666 66.0801 148.869 65.7387 148.869 65.7387C148.869 65.7387 152.42 64.7575 152.61 64.6972L154.331 61.4333L155.797 62.4374C155.797 62.4374 153.851 66.0783 153.656 66.187C153.46 66.2953 148.525 67.0098 148.092 67.0877C148.092 67.0877 147.605 67.39 147.294 67.5686C146.982 67.7472 146.617 67.7657 146.522 67.8009C146.508 67.8062 146.187 67.9048 145.763 67.9109C145.398 67.9162 145.744 67.7279 145.744 67.7279C145.744 67.7279 146.42 67.5849 146.401 67.5286C146.386 67.485 146.021 67.5871 145.617 67.5976C145.514 67.6003 145.411 67.6025 145.317 67.6034C145.07 67.6069 144.999 67.4414 145.257 67.3926C145.349 67.3754 145.501 67.3512 145.612 67.3504C145.731 67.3499 145.841 67.3068 145.942 67.2896C146.141 67.2549 146.287 67.2324 146.281 67.2245C146.274 67.2135 146.31 67.1761 146.199 67.1752C146.067 67.1744 145.784 67.2404 145.589 67.2219C145.479 67.2118 145.247 67.2056 145.247 67.2056C145.247 67.2056 144.872 67.1506 144.87 67.1268C144.857 66.9966 145.136 66.9522 145.284 66.9878C145.39 66.957 145.633 66.9711 145.633 66.9711C145.633 66.9711 146.134 66.8782 146.124 66.8004C146.115 66.7366 144.881 66.7062 144.876 66.5751C144.873 66.4677 145.245 66.4585 145.245 66.4585C145.245 66.4585 145.47 66.4721 145.545 66.4699C145.633 66.4677 145.897 66.4391 145.897 66.4391C145.897 66.4391 146.812 66.2926 146.796 66.22C146.78 66.1474 146.673 65.9789 146.614 65.9666C146.554 65.9543 146.434 65.9943 146.375 65.9815C146.316 65.9692 146.248 65.8971 146.257 65.8157C146.267 65.7347 146.575 65.6735 146.575 65.6735C146.575 65.6735 146.826 65.6265 146.991 65.6933" fill="#F8A492"/>
<path d="M154.859 59.6108C154.761 59.6143 154.493 59.694 154.099 60.3518C153.598 61.1913 152.865 63.7283 152.865 63.7283L155.053 64.4503L155.335 63.921L155.797 59.8444C155.797 59.8444 154.886 59.6099 154.859 59.6108" fill="#355389"/>
<path d="M147.447 66.5711C147.173 66.5645 146.955 66.4572 146.796 66.22C146.854 66.5504 147.205 66.6882 147.447 66.5711Z" fill="#FE875E"/>
<path d="M157.752 59.2451C157.126 59.246 155.577 59.4075 154.859 59.6108C154.859 59.6108 154.331 63.6306 155.334 66.6851C155.559 67.3688 155.148 69.5196 155.148 69.5196L161.931 69.3616C161.931 69.3616 160.865 64.2444 161.154 63.4049C161.444 62.5649 161.451 59.638 161.451 59.638C161.451 59.638 161.406 59.6319 159.994 59.4154C159.335 59.3146 158.42 59.2442 157.752 59.2451Z" fill="#50BFA5"/>
<path d="M156.208 69.0496C156.208 69.0496 151.133 68.4046 150.063 68.9405C148.992 69.4769 152.44 72.0632 152.44 72.0632C152.44 72.0632 155.389 71.8912 156.259 71.8956C157.122 71.9004 159.762 72.0914 161.296 71.8938C162.83 71.6962 162.656 69.3818 162.367 69.0998C162.077 68.8173 156.208 69.0496 156.208 69.0496Z" fill="#B75742"/>
<path d="M153.4 78.9576C153.4 78.9576 153.562 79.471 153.231 79.7993C152.898 80.1275 151.555 80.4232 151.373 80.6005C151.192 80.7783 151.201 80.934 151.201 80.934L154.946 80.9402L154.938 79.9379L154.789 79.2141L153.4 78.9576" fill="#F7A491"/>
<path d="M152.992 79.9612C152.992 79.9612 153.942 80.3308 154.414 80.1385C154.885 79.9467 154.873 79.8899 155.005 79.9696C155.136 80.0492 155.154 80.989 155.154 80.989H150.942C150.649 80.9754 150.508 80.7805 150.751 80.623C150.918 80.5152 151.109 80.4448 151.218 80.3933C151.553 80.2344 152.992 79.9612 152.992 79.9612" fill="#466EB6"/>
<path d="M152.074 69.7862C151.724 69.2763 150.846 68.5349 149.742 69.0607C148.69 69.5623 148.967 71.1599 149.431 72.1385C149.893 73.117 152.86 78.8467 153.034 79.6559L154.857 79.501C154.857 79.501 153.984 74.8295 153.772 73.7005C153.567 72.6141 152.679 70.6697 152.074 69.7862Z" fill="#F47458"/>
<path d="M158.885 78.0846C158.885 78.0846 158.735 79.6136 158.46 80.0369C158.185 80.4606 158.474 81.18 158.489 81.279C158.503 81.378 159.068 81.5188 159.965 81.4343C160.862 81.3494 160.847 81.1659 160.775 80.8698C160.703 80.5732 160.225 80.1922 160.196 79.9102C160.167 79.6277 160.471 78.6117 160.471 78.6117L158.885 78.0846Z" fill="#F7A491"/>
<path d="M160.077 81.6407C161.001 81.5536 160.886 81.1514 160.812 80.8465C160.765 80.6551 160.5 80.4298 160.342 80.2169C160.26 80.2754 160.125 80.3779 159.724 80.4831C159.307 80.5922 158.736 80.3761 158.372 80.2411C158.243 80.6687 158.237 81.2143 158.249 81.2971C158.264 81.3987 159.153 81.7278 160.077 81.6407Z" fill="#466EB6"/>
<path d="M159.521 71.7996C159.334 73.0492 158.412 79.2704 158.412 79.2704L160.553 79.5054C160.553 79.5054 163.186 71.386 163.051 70.1439C162.917 68.9022 161.931 68.7975 161.931 68.7975C161.931 68.7975 160.015 68.4922 159.521 71.7996" fill="#F47458"/>
<path d="M161.521 60.0846C160.745 59.8268 160.548 67.3152 160.548 67.3152C159.828 67.7477 157.589 69.1126 157.104 69.3273C156.907 69.4144 156.379 69.5033 156.177 69.5807C155.97 69.6599 155.788 69.7404 155.704 69.8047C155.673 69.8284 154.944 70.6856 154.913 70.8057C154.875 70.9544 154.759 71.3394 154.875 71.4182C154.99 71.4965 155.212 70.8492 155.212 70.8492L155.37 70.6068C155.246 71.0173 154.909 71.65 155.072 71.7292C155.231 71.8067 155.509 71.1982 155.715 70.7749C155.571 71.1867 155.483 71.8335 155.618 71.856C155.739 71.8758 155.833 71.1308 156.202 70.7357C156.339 70.5892 156.613 70.6495 156.762 70.5958C156.871 70.5562 157.045 70.503 157.126 70.4264L157.548 70.0313C157.729 69.9538 157.934 69.8742 158.13 69.8148C158.358 69.7462 158.68 69.6089 158.975 69.5284C160.673 69.0646 161.097 68.9599 161.617 68.8811C162.139 68.8024 162.387 67.5734 162.461 65.659C162.544 63.5272 162.954 60.5612 161.521 60.0846" fill="#F7A491"/>
<path d="M162.672 64.6281C162.785 62.5878 162.769 60.0732 161.478 59.6438C160.968 59.4748 160.07 60.4925 160.231 64.6695C160.921 64.7201 161.933 64.7606 162.672 64.6281Z" fill="#355389"/>
<path d="M158.257 53.8644C158.257 53.8644 159.122 53.2924 159.603 54.1548C159.599 54.1477 159.927 54.1275 159.973 54.1367C160.167 54.1759 160.366 54.3237 160.543 54.4003C161.176 54.6722 161.516 55.2631 161.607 55.821C161.718 56.4986 161.426 57.02 160.931 57.5489C160.785 57.7051 160.628 57.8582 160.426 57.9656C160.184 58.095 159.974 58.0206 159.739 58.0844C159.542 58.1385 159.489 58.3176 159.245 58.2714C158.903 58.2067 158.519 57.8899 158.111 57.9696C157.704 58.0488 156.721 57.8116 156.718 57.8112C155.455 57.5067 156.078 55.5126 156.241 54.8086C156.394 54.1473 157.476 53.6835 158.257 53.8644" fill="#F5F6FF"/>
<path d="M157.612 58.3414L157.369 59.0726L157.239 59.481C157.239 59.481 157.019 59.9465 157.624 60.0345C158.787 60.2034 159.212 59.3802 159.212 59.3802L159.432 57.1182L157.612 58.3414Z" fill="#F7A491"/>
<path d="M159.36 57.8512C158.889 58.5798 157.984 58.9609 157.366 59.0797L157.612 58.3414L159.432 57.1182L159.36 57.8512Z" fill="#F47458"/>
<path d="M158.821 54.853C158.054 54.5393 157.127 54.883 156.895 55.5474C156.793 55.836 156.685 56.2012 156.611 56.6051C156.43 57.5766 156.893 58.5917 157.433 58.6502C157.974 58.7092 159.57 58.241 159.848 56.8643C160.021 56.0142 159.626 55.1822 158.821 54.853" fill="#F7A491"/>
<path d="M159.433 56.9303C159.397 57.145 159.543 57.3382 159.758 57.3615C159.973 57.3848 160.175 57.2295 160.21 57.0148C160.245 56.8 160.099 56.6069 159.885 56.5836C159.67 56.5602 159.467 56.7156 159.433 56.9303Z" fill="#F7A491"/>
<path d="M157.835 41.4398C157.835 41.4398 158.554 41.578 158.633 41.7839C158.712 41.9902 158.658 42.2996 158.34 42.557C158.022 42.8148 157.275 42.722 157.062 42.6076C156.849 42.4932 156.639 41.959 156.808 41.6413C156.975 41.3236 157.835 41.4398 157.835 41.4398" fill="#F5F6FF"/>
<path d="M158.109 57.8635C158.109 57.8635 158.13 58.098 158.038 58.1468C157.95 58.1944 157.837 58.237 157.729 58.2529C157.554 58.2788 157.389 58.2287 157.285 58.124C157.275 58.1138 157.265 58.1033 157.257 58.0918C157.173 57.9801 157.138 57.7751 157.138 57.7751C157.138 57.7751 157.426 57.6959 157.6 57.7073C157.773 57.7188 158.109 57.8635 158.109 57.8635" fill="#F7A491"/>
<path d="M169.423 72.3413H163.227V70.979H169.423V72.3413Z" fill="#355389"/>
<path d="M170.07 64.2822L168.735 69.4619L167.597 69.4558L168.917 64.2822H170.07Z" fill="#355389"/>
<path d="M141.181 59.4954C141.181 59.4954 143.533 59.7167 144.157 60.3019L142.629 67.668C142.629 67.668 139.727 68.0526 137.875 67.4859C137.875 67.4859 136.834 61.581 137.772 60.1339C138.085 59.6516 139.511 59.6318 139.511 59.6318L141.181 59.4954" fill="#F7CC7F"/>
<path d="M142.629 67.668C142.629 67.668 143.615 68.4904 143.873 68.8802C144.462 69.7712 143.814 71.1867 142.702 71.1141C142.115 71.0758 141.53 71.0772 141.109 71.1691C139.865 71.4397 138.395 70.8545 137.759 70.8545C137.454 70.8545 136.668 70.983 135.932 71.1168C135.283 71.2347 134.874 70.6825 135.038 70.1113C135.298 69.2045 135.998 68.3786 136.395 68.0411C136.646 67.8268 137.453 67.4014 137.975 67.4014C140.03 67.4014 142.629 67.668 142.629 67.668Z" fill="#B75742"/>
<path d="M142.629 69.7303C142.111 69.289 141.374 68.9476 140.507 69.6612C139.639 70.3754 138.165 78.6223 138.165 78.6223C138.165 78.6223 137.622 79.4037 137.128 80.087C136.782 80.5644 138.147 81.3833 138.754 81.2112C139.361 81.0387 139.697 78.771 139.697 78.771C139.697 78.771 144.079 70.965 142.629 69.7303" fill="#F48C7F"/>
<path d="M137.128 80.0871C137.597 80.1781 138.486 80.333 139.384 80.3911C139.228 80.7761 139.016 81.1364 138.754 81.2112C138.147 81.3833 136.267 81.3454 136.366 81.0748C136.423 80.92 136.782 80.5645 137.128 80.0871Z" fill="#13375B"/>
<path d="M138.128 69.5152C138.466 70.1105 138.783 71.3561 138.95 72.0227C139.404 73.8223 139.738 79.3958 139.738 79.3958C139.738 79.3958 141.004 80.9129 140.711 81.1628C140.418 81.4123 138.66 81.2865 138.325 81.1646C137.99 81.0427 138.128 79.4539 138.018 79.05C138.018 79.05 135.018 70.781 135.626 69.7594C136.232 68.7372 137.832 68.9951 138.128 69.5152" fill="#F79C8D"/>
<path d="M138.096 80.3708C138.492 80.6093 139.684 80.3035 140.291 80.124C140.589 80.5508 140.865 81.0317 140.711 81.1628C140.418 81.4123 138.66 81.2865 138.325 81.1646C138.177 81.1105 138.121 80.7695 138.096 80.3708" fill="#13375B"/>
<path d="M137.934 57.765C137.934 57.765 136.546 55.4123 137.882 54.6775C138.909 54.113 139.363 54.5244 139.363 54.5244C139.363 54.5244 140.943 53.5317 141.531 55.1219C141.531 55.1219 142.747 55.1452 143.004 56.0433C143.26 56.9413 142.678 57.3452 142.678 57.3452C142.678 57.3452 143.316 57.809 143.154 58.5086C142.992 59.2087 141.766 59.5439 141.049 59.1471C140.333 58.7506 140.418 59.0687 139.85 59.0687C139.282 59.0687 137.934 57.765 137.934 57.765" fill="#F5F6FF"/>
<path d="M139.191 58.6177C139.191 58.6177 140.083 60.0666 139.792 60.7847C139.63 61.1851 141.567 59.5773 141.567 59.5773L140.538 57.8851L139.191 58.6177Z" fill="#F7A491"/>
<path d="M140.67 58.102L140.538 57.8851L139.191 58.6177C139.191 58.6177 139.315 58.8178 139.454 59.1065C139.603 59.0691 139.758 59.0044 139.92 58.9085C140.27 58.6999 140.512 58.4157 140.67 58.102Z" fill="#F48C7F"/>
<path d="M139.62 55.081C139.62 55.081 140.285 55.1716 140.724 55.6644C141.164 56.1572 141.338 57.959 140.048 58.7286C138.757 59.4981 137.856 58.2459 137.774 57.2748C137.694 56.3042 137.86 54.9947 139.62 55.081Z" fill="#F7A491"/>
<path d="M140.663 57.1419C140.606 57.4037 140.732 57.6404 140.945 57.6708C141.158 57.7007 141.377 57.5133 141.435 57.2515C141.492 56.9892 141.366 56.7525 141.153 56.7226C140.94 56.6922 140.721 56.8801 140.663 57.1419Z" fill="#F7A491"/>
<path d="M139.216 54.8539C139.002 55.0238 139.3 55.6054 139.883 56.1528C140.466 56.7006 141.112 57.0068 141.326 56.837C141.541 56.6667 141.242 56.085 140.66 55.5377C140.077 54.9899 139.431 54.6836 139.216 54.8539Z" fill="#F5F6FF"/>
<path d="M130.055 56.4344C130.142 56.2712 130.916 56.7543 131.087 56.6623C131.259 56.5704 130.394 55.7955 130.483 55.6604C130.645 55.411 131.488 56.4568 131.571 56.3464C131.654 56.236 130.844 55.1192 131.133 55.0576C131.423 54.996 131.837 56.2936 131.985 56.21C132.133 56.1264 131.477 55.0343 131.758 54.8117C131.907 54.6924 132.612 56.8049 132.868 56.8924C133.124 56.9804 133.412 56.0582 133.653 56.0943C133.893 56.1308 132.863 57.7905 132.913 57.9198C132.964 58.0492 133.907 60.7587 134.464 61.5771C134.799 61.435 135.126 61.2916 135.437 61.1521C135.562 61.7804 135.85 62.3295 136.015 62.9464C134.934 63.3684 133.696 63.7872 133.382 63.6843C132.426 63.3719 131.955 59.2486 131.801 58.4795C131.648 57.7095 131.239 57.5586 131.006 57.1542C130.774 56.7499 129.969 56.5976 130.055 56.4344" fill="#F48C7F"/>
<path d="M138.256 59.8607L139.644 61.3404C139.644 61.3404 137.654 62.5337 135.862 63.2333C135.697 62.6164 135.292 61.6497 135.167 61.021C136.647 60.3566 138.256 59.8607 138.256 59.8607Z" fill="#F7CC7F"/>
<path d="M151.007 56.2826C150.92 56.1194 150.146 56.6025 149.975 56.5106C149.803 56.4186 150.668 55.6438 150.579 55.5087C150.417 55.2592 149.574 56.3051 149.491 56.1946C149.408 56.0842 150.218 54.9671 149.929 54.9059C149.64 54.8443 149.225 56.1418 149.077 56.0582C148.929 55.9746 149.584 54.8826 149.305 54.6599C149.155 54.5407 148.45 56.6531 148.194 56.7407C147.939 56.8287 147.651 55.9064 147.409 55.9425C147.169 55.979 148.199 57.6387 148.149 57.7681C148.099 57.8974 147.155 60.6069 146.598 61.4253C146.263 61.2832 145.936 61.1398 145.626 61.0003C145.5 61.6286 145.165 62.2239 145.001 62.8408C146.081 63.2628 147.367 63.6354 147.681 63.5325C148.636 63.2201 149.107 59.0969 149.261 58.3277C149.415 57.5578 149.823 57.4068 150.056 57.0025C150.288 56.5981 151.094 56.4459 151.007 56.2826" fill="#F48C7F"/>
<path d="M142.691 59.7318L142.44 63.0806C142.44 63.0806 143.408 62.3815 145.2 63.0815C145.365 62.4646 145.77 61.4979 145.895 60.8692C144.415 60.2048 142.691 59.7318 142.691 59.7318Z" fill="#F7CC7F"/>
<path d="M113.199 80.989L116.734 68.5951L118.836 69.0589L115.221 80.989H113.199" fill="#355389"/>
<path d="M124.105 80.989L120.702 69.0589L122.593 68.5951L126.149 80.989H124.105" fill="#355389"/>
<path d="M122.425 65.9714H120.825C119.901 65.9714 119.153 65.3061 119.153 64.4859H124.096C124.096 65.3061 123.348 65.9714 122.425 65.9714Z" fill="#BC4D26"/>
<path d="M122.425 65.9714H120.825C119.901 65.9714 119.153 65.3061 119.153 64.4859H124.096C124.096 65.3061 123.348 65.9714 122.425 65.9714Z" fill="#86B1F2"/>
<path d="M119.793 64.4859H119.153C119.153 65.3061 119.901 65.9714 120.825 65.9714H121.464C120.541 65.9714 119.793 65.3061 119.793 64.4859Z" fill="#466EB6"/>
<path d="M122.663 67.1682H120.586C119.795 67.1682 119.153 66.598 119.153 65.8948V65.6828H124.096V65.8948C124.096 66.598 123.455 67.1682 122.663 67.1682" fill="#F47458"/>
<path d="M119.793 65.6828H119.153C119.153 66.5034 119.901 67.1682 120.825 67.1682H121.464C120.541 67.1682 119.793 66.5034 119.793 65.6828Z" fill="#B75742"/>
<path d="M122.425 68.0913H120.825C119.901 68.0913 119.153 67.4265 119.153 66.6059H124.096C124.096 67.4265 123.348 68.0913 122.425 68.0913Z" fill="#BC4D26"/>
<path d="M122.425 68.0913H120.825C119.901 68.0913 119.153 67.4265 119.153 66.6059H124.096C124.096 67.4265 123.348 68.0913 122.425 68.0913Z" fill="#50BFA5"/>
<path d="M119.793 66.6059H119.153C119.153 67.4265 119.901 68.0913 120.825 68.0913H121.464C120.541 68.0913 119.793 67.4265 119.793 66.6059Z" fill="#3C8F7C"/>
<path d="M140.178 66.9315C140.206 67.3662 140.851 67.7767 141.5 67.7767C142.15 67.7767 142.768 67.3451 142.768 66.9095C142.768 66.2842 142.404 66.2851 141.941 66.3194C141.853 66.326 141.761 66.3335 141.667 66.3384C141.612 66.341 141.556 66.3428 141.5 66.3428C141.442 66.3428 141.384 66.3406 141.325 66.3366C141.255 66.3322 141.184 66.3256 141.115 66.319C140.594 66.2693 140.131 66.213 140.178 66.9315Z" fill="#F48C7F"/>
<path d="M141.835 65.7152C141.835 65.7152 141.836 65.7164 141.829 65.7147L141.831 65.7113C141.833 65.713 141.835 65.7147 141.835 65.7152" fill="#50BFA5"/>
<path d="M140.864 66.0502C140.928 65.9934 140.992 66.0502 140.992 66.0502C140.902 66.0502 140.943 66.1439 141.017 66.2103C141.063 66.2508 141.395 66.2372 141.512 66.2156C141.519 66.2143 141.527 66.213 141.534 66.2121C141.45 65.9895 141.555 65.4853 141.886 65.5737L141.83 65.7123C141.823 65.7083 141.808 65.7022 141.795 65.7017C141.656 65.6885 141.536 66.0379 141.573 66.2099C141.774 66.2059 142.126 66.3027 142.164 66.2469C142.213 66.1751 142.093 66.1589 142.093 66.1589L141.987 66.1839C141.987 66.1839 142.088 66.0506 142.192 66.0832C142.359 66.136 142.322 66.275 142.282 66.3102C142.251 66.3379 141.938 66.3397 141.785 66.3388C141.838 66.356 142.007 66.4317 142.093 66.5518C142.191 66.6895 141.987 66.8831 141.987 66.8831C141.987 66.8831 142.097 66.6912 141.978 66.5861C141.886 66.5034 141.695 66.3991 141.616 66.3573L141.604 66.8373C141.604 66.8373 141.486 66.7449 141.486 66.561C141.486 66.4396 141.506 66.3736 141.52 66.3423L141.411 66.3507C141.346 66.3687 141.243 66.4009 141.164 66.4435C141.041 66.5104 141.227 66.6899 141.227 66.6899C141.227 66.6899 141.132 66.6618 141.081 66.5782C140.982 66.4163 141.093 66.374 141.182 66.3388C141.112 66.3318 141.047 66.3349 140.949 66.3195C140.782 66.2931 140.801 66.1065 140.864 66.0502" fill="#50BFA5"/>
<path d="M156.98 80.989L153.462 68.5186L151.46 68.5951L154.953 80.989H156.98" fill="#355389"/>
<path d="M143.862 80.989L147.376 68.5186H145.352L141.838 80.989H143.862" fill="#355389"/>
<path d="M121.019 69.2221H156.526V68.017H121.019V69.2221" fill="#466EB6"/>
<path d="M113.825 69.2221H140.359V68.017H113.825V69.2221Z" fill="#355389"/>
<path d="M154.587 68.017L147.693 73.5266L142.629 68.017H154.587Z" fill="#FBC24C"/>
<path d="M135.196 67.4322C135.196 67.4322 134.44 65.7386 134.474 65.4504C134.508 65.1622 134.801 65.0184 134.971 65.3475C135.141 65.6766 135.203 66.04 135.332 65.9098C135.461 65.7796 135.005 64.4147 135.523 64.3258C136.04 64.2365 135.707 66.0744 135.911 66.0334C136.115 65.9921 136.224 64.031 136.776 64.1885C137.327 64.3465 136.415 66.1773 136.626 66.1773C136.837 66.1773 137.178 64.4424 137.791 64.7099C138.404 64.9774 137.018 66.3111 137.239 66.5342C137.46 66.7568 138.342 65.1213 138.908 65.5877C139.473 66.0541 137.513 66.9992 137.586 67.0727C137.659 67.1462 139.262 65.9718 139.616 66.4176C139.97 66.8633 138.374 67.0947 138.471 67.2404C138.569 67.386 139.387 67.144 139.337 67.4322C139.286 67.7208 137.552 67.7134 137.552 67.7134L135.196 67.4322" fill="#3C8F7C"/>
<path d="M131.967 66.7018C132.133 66.6389 132.207 66.5285 132.076 66.4154C131.91 66.2644 131.558 66.2961 131.41 66.4814C131.297 66.62 131.324 66.8224 131.421 66.9588C131.47 67.0314 131.543 67.0908 131.627 67.133C131.723 67.1841 131.852 67.2092 131.896 67.2061L131.874 67.287C131.821 67.2782 131.771 67.2646 131.722 67.2466C131.552 67.1836 131.433 67.0912 131.36 66.9843C131.36 66.9821 131.149 66.6882 131.337 66.4409C131.535 66.1756 132.047 66.158 132.232 66.4145C132.347 66.5716 132.226 66.7375 132.028 66.8167L131.967 66.7018" fill="#3C8F7C"/>
<path d="M132.31 67.2373C132.31 67.2373 133.522 67.1546 133.639 67.1207C133.754 67.0868 133.725 66.8664 134.178 66.7902C134.631 66.7141 134.906 66.8382 134.961 67.0349C135.016 67.2316 134.694 67.3918 134.578 67.2593C134.461 67.1269 134.427 66.9755 134.164 67.0032C133.9 67.0309 133.701 67.2175 133.701 67.2175L132.31 67.2373Z" fill="#466EB6"/>
<path d="M136.505 66.9676C136.505 66.9676 136.361 67.7257 135.198 67.6126C134.011 67.4973 133.629 67.844 132.62 67.8027C131.808 67.7697 130.753 66.8184 131.159 65.644C131.565 64.4692 136.309 64.0684 136.505 66.9676Z" fill="#F7CC7F"/>
<path d="M136.503 66.9165C136.51 66.9746 136.501 67.0331 136.478 67.0873C136.392 67.2927 136.097 67.7455 135.192 67.6575C134.005 67.5418 133.628 67.8511 132.62 67.804C131.808 67.7666 130.743 66.8989 131.134 65.8438C131.522 64.7984 136.189 64.3826 136.503 66.9165" fill="#F47458"/>
<path d="M131.134 65.8438C131.544 64.8806 135.697 64.5009 136.411 66.5623C136.452 66.678 136.481 66.7968 136.503 66.9165C136.439 66.1685 135.963 65.5684 135.045 65.2331C133.695 64.7482 131.98 65.0386 131.365 65.5415C131.261 65.6242 131.174 65.7272 131.134 65.8438Z" fill="#FAE0B2"/>
<path d="M132.102 67.401C132.102 67.401 131.354 67.085 131.325 66.5319C131.296 65.9788 131.864 65.5093 132.346 65.4152C132.829 65.3215 132.252 65.534 132.049 66.2314C131.847 66.9284 132.497 67.4142 132.102 67.401Z" fill="#F48C7F"/>
<path d="M135.949 66.942C136.17 66.9368 136.338 66.7682 136.304 66.5808C136.276 66.4277 136.168 66.2336 135.879 66.015C135.179 65.4861 133.09 65.0443 132.912 65.4342C132.734 65.8244 133.843 65.9265 133.997 66.4946C134.115 66.9346 135.383 66.9548 135.949 66.942" fill="#F48C7F"/>
<path d="M135.887 67.1686C136.017 67.1915 136.075 67.3213 135.997 67.4111C135.903 67.5198 135.725 67.6254 135.398 67.5932C134.768 67.5321 134.053 67.5783 133.479 67.6372C132.904 67.6966 132.449 67.7037 132.469 67.5391C132.489 67.375 133.571 67.1224 133.799 66.9838C134.014 66.8532 135.358 67.0745 135.887 67.1686" fill="#F48C7F"/>
<path d="M139.724 67.0089C139.724 67.0089 139.724 67.6293 138.92 67.7846C138.115 67.9395 136.793 67.5959 136.662 67.4678C136.554 67.3627 136.553 67.2474 136.57 67.1233C136.585 67.016 136.623 67.0789 137.131 66.946C137.639 66.8136 137.701 66.9271 138.193 66.7242C138.684 66.5218 139.703 66.59 139.724 67.0089Z" fill="#184655"/>
<path d="M136.847 67.3354C136.738 67.3094 136.65 67.2527 136.599 67.1792C136.599 67.1788 136.598 67.1783 136.598 67.1783C136.53 67.082 136.546 66.9561 137.054 66.8233C137.561 66.6904 137.664 66.7392 138.156 66.5364C138.648 66.334 139.71 66.5821 139.731 67.0006C139.731 67.0006 139.731 67.0322 139.719 67.0639C139.585 67.2496 139.344 67.4335 138.912 67.5079C138.317 67.61 137.466 67.4841 136.847 67.3354" fill="#50BFA5"/>
<path d="M139.554 67.1458C139.64 67.06 139.649 66.9456 139.573 66.8549C139.341 66.5795 138.572 66.4321 138.197 66.587C137.879 66.7181 137.719 66.7471 137.515 66.7845C137.312 66.8215 136.488 66.9429 136.672 67.1889C136.772 67.3218 137.115 67.3363 137.296 67.3702C137.473 67.4032 137.653 67.4309 137.834 67.4511C138.014 67.4714 138.238 67.5066 138.419 67.4863C138.549 67.4722 139.179 67.5171 139.554 67.1458" fill="#FAE0B2"/>
<path d="M138.118 66.6798C137.754 66.7234 137.493 66.9042 137.535 67.0837C137.577 67.2632 137.907 67.3732 138.271 67.3297C138.636 67.2861 138.897 67.1053 138.854 66.9258C138.812 66.7458 138.483 66.6358 138.118 66.6798Z" fill="#F47458"/>
<path d="M132.801 66.4523C132.968 66.389 133.041 66.2786 132.91 66.1655C132.745 66.0146 132.392 66.0462 132.244 66.2315C132.131 66.3701 132.159 66.5725 132.256 66.7093C132.305 66.7815 132.378 66.8409 132.461 66.8831C132.558 66.9341 132.687 66.9592 132.73 66.9561L132.709 67.0375C132.656 67.0287 132.606 67.0146 132.557 66.997C132.386 66.9341 132.268 66.8417 132.195 66.7348C132.194 66.7322 131.983 66.4387 132.172 66.191C132.369 65.9261 132.881 65.9081 133.067 66.165C133.181 66.3217 133.061 66.488 132.862 66.5667L132.801 66.4523" fill="#3C8F7C"/>
<path d="M136.27 66.9473C136.27 66.572 135.792 66.2676 135.203 66.2676C134.775 66.2676 134.405 66.4286 134.236 66.6609C133.355 66.6926 132.676 66.8959 132.676 67.1418C132.676 67.2571 132.814 67.3376 132.923 67.3878C133.124 67.4802 133.355 67.5286 133.58 67.5633C133.859 67.6064 134.142 67.6346 134.426 67.6504C134.698 67.6654 134.977 67.6773 135.249 67.6584C135.467 67.6434 135.682 67.6003 135.873 67.511C136.032 67.4366 136.161 67.3253 136.223 67.1827C136.256 67.1075 136.27 67.0274 136.27 66.9473" fill="#13375B"/>
<path d="M133.144 66.9874C133.144 66.9874 134.357 66.9046 134.472 66.8707C134.589 66.8373 134.56 66.6164 135.013 66.5403C135.465 66.4641 135.74 66.5887 135.795 66.7849C135.85 66.9816 135.528 67.1418 135.412 67.0098C135.295 66.8773 135.261 66.726 134.998 66.7533C134.735 66.781 134.535 66.968 134.535 66.968L133.144 66.9874Z" fill="#466EB6"/>
<path d="M133.246 66.9442L133.117 66.9988L133.22 67.074L133.079 67.1114L133.215 67.1889L133.22 67.1911L133.067 67.2623L133.191 67.3477L133.039 67.404L133.059 67.4859C132.643 67.441 132.562 67.173 132.562 67.173C132.556 67.1383 132.555 67.1061 132.558 67.0771C132.598 66.7418 133.254 66.7537 133.254 66.7537L133.153 66.8069L133.22 66.8241L133.14 66.8782L133.246 66.9442Z" fill="#3C8F7C"/>
<path d="M138.862 67.0476C138.884 67.3926 139.395 67.7182 139.91 67.7182C140.425 67.7182 140.916 67.3754 140.916 67.0305C140.916 66.5346 140.627 66.535 140.259 66.5623C140.189 66.5676 140.117 66.5733 140.042 66.5773C139.999 66.5795 139.955 66.5808 139.91 66.5808C139.864 66.5808 139.818 66.579 139.772 66.576C139.716 66.5724 139.659 66.5672 139.604 66.5619C139.192 66.5223 138.824 66.4778 138.862 67.0476" fill="#B75742"/>
<path d="M140.175 66.0831C140.175 66.0831 140.176 66.0841 140.171 66.0825L140.172 66.0804C140.174 66.0815 140.175 66.0825 140.175 66.0831Z" fill="#3C8F7C"/>
<path d="M139.405 66.3489C139.456 66.304 139.506 66.3489 139.506 66.3489C139.436 66.3489 139.468 66.4228 139.527 66.4756C139.563 66.5078 139.827 66.4972 139.919 66.48C139.925 66.4787 139.93 66.4778 139.937 66.4774C139.87 66.3005 139.954 65.901 140.216 65.971L140.172 66.081C140.167 66.0779 140.154 66.0726 140.143 66.0726C140.033 66.062 139.938 66.3392 139.968 66.4756C140.127 66.4721 140.406 66.5491 140.436 66.5047C140.475 66.4479 140.38 66.4352 140.38 66.4352L140.296 66.455C140.296 66.455 140.376 66.3494 140.459 66.3749C140.591 66.4167 140.562 66.5271 140.53 66.5553C140.505 66.5773 140.257 66.5782 140.136 66.5777C140.178 66.5914 140.312 66.6512 140.38 66.7467C140.458 66.8558 140.296 67.0094 140.296 67.0094C140.296 67.0094 140.383 66.8576 140.289 66.7735C140.216 66.7084 140.064 66.6257 140.001 66.5922L139.992 66.9728C139.992 66.9728 139.898 66.8998 139.898 66.7537C139.898 66.6578 139.915 66.6054 139.926 66.5804L139.839 66.587C139.788 66.6015 139.706 66.627 139.643 66.6609C139.545 66.7141 139.693 66.8562 139.693 66.8562C139.693 66.8562 139.618 66.8338 139.578 66.7674C139.499 66.6393 139.586 66.6054 139.658 66.5777C139.602 66.572 139.55 66.5746 139.472 66.5623C139.34 66.5412 139.355 66.3934 139.405 66.3489" fill="#3C8F7C"/>
<path d="M126.331 62.674V59.8607H127.12V62.674C127.441 62.674 127.701 62.9064 127.701 63.1928V68.0376H125.75V63.1928C125.75 62.9064 126.01 62.674 126.331 62.674Z" fill="#50BFA5"/>
<path d="M126.331 62.674V59.8607H126.737V62.674C126.416 62.674 126.156 62.9064 126.156 63.1928V68.0376H125.75V63.1928C125.75 62.9064 126.01 62.674 126.331 62.674Z" fill="#3C8F7C"/>
<path d="M126.331 61.2256H127.12V59.8607H126.331V61.2256Z" fill="#B75742"/>
<path d="M125.75 67.3416H127.701V64.8762H125.75V67.3416Z" fill="#B75742"/>
<path d="M129.718 68.0654C129.773 68.0654 129.826 68.0447 129.863 68.0086C129.898 67.9743 129.917 67.9294 129.914 67.8828L129.783 65.7136C129.778 65.6366 129.622 65.5574 129.568 65.5354L129.54 65.5244V64.222H128.961V65.5244L128.933 65.5354C128.879 65.5574 128.724 65.637 128.719 65.7136L128.589 67.8828C128.586 67.9294 128.603 67.9743 128.64 68.0086C128.677 68.0447 128.73 68.0654 128.785 68.0654H129.718" fill="#F47458"/>
<path d="M128.589 67.8942L128.719 65.6929C128.724 65.615 128.879 65.5345 128.933 65.512L128.961 65.501V64.1797H129.205V65.501L129.178 65.512C129.124 65.5345 128.968 65.615 128.964 65.6929L128.833 67.8942C128.83 67.9417 128.849 67.987 128.884 68.0222C128.921 68.0588 128.974 68.0794 129.029 68.0794H128.785C128.73 68.0794 128.677 68.0588 128.64 68.0222C128.603 67.987 128.586 67.9417 128.589 67.8942" fill="#B75742"/>
<path d="M129.829 67.9928C129.801 68.0214 129.761 68.0368 129.718 68.0368H128.785C128.742 68.0368 128.701 68.0214 128.673 67.9928C128.646 67.9664 128.632 67.932 128.634 67.8964L128.765 65.6955C128.767 65.6559 128.866 65.5868 128.952 65.5512L129.006 65.5287V65.4733V64.2219H129.494V65.5292L129.549 65.5512C129.636 65.5868 129.735 65.6559 129.737 65.6955L129.868 67.8964C129.87 67.932 129.857 67.9664 129.829 67.9928ZM129.96 67.892L129.828 65.6907C129.822 65.5688 129.586 65.4733 129.586 65.4733V64.137H128.915V65.4733C128.915 65.4733 128.681 65.5688 128.674 65.6907L128.543 67.892C128.535 68.017 128.646 68.1221 128.785 68.1221H129.718C129.857 68.1221 129.967 68.017 129.96 67.892" fill="#3C8F7C"/>
<path d="M128.791 64.137H129.716V64.016H128.791V64.137Z" fill="#B75742"/>
<path d="M128.791 64.0587H129.716V64.016H128.791V64.0587Z" fill="#184655"/>
<path d="M128.782 64.016H129.763C129.8 64.016 129.831 63.9892 129.831 63.9562V63.8634C129.831 63.8299 129.8 63.8031 129.763 63.8031H128.782C128.745 63.8031 128.715 63.8299 128.715 63.8634V63.9562C128.715 63.9892 128.745 64.016 128.782 64.016Z" fill="#B7965C"/>
<path d="M128.782 64.016H129.763C129.8 64.016 129.831 63.9892 129.831 63.9562V63.8634C129.831 63.8299 129.8 63.8031 129.763 63.8031H128.782C128.745 63.8031 128.715 63.8299 128.715 63.8634V63.9562C128.715 63.9892 128.745 64.016 128.782 64.016Z" fill="#B75742"/>
<path d="M128.717 66.8593C128.717 67.2514 128.959 67.5695 129.257 67.5695C129.556 67.5695 129.798 67.2514 129.798 66.8593C129.798 66.4668 129.556 66.1492 129.257 66.1492C128.959 66.1492 128.717 66.4668 128.717 66.8593Z" fill="#FBC24C"/>
<path d="M128.773 66.8593C128.773 67.2109 128.99 67.4956 129.257 67.4956C129.525 67.4956 129.741 67.2109 129.741 66.8593C129.741 66.5078 129.525 66.2226 129.257 66.2226C128.99 66.2226 128.773 66.5078 128.773 66.8593Z" fill="#86B1F2"/>
<path d="M131.047 68.0354H142.864C143.264 68.0354 143.588 67.7472 143.588 67.3917H130.323C130.323 67.7472 130.647 68.0354 131.047 68.0354Z" fill="#55BBF9"/>
<path d="M140.067 68.017L130.19 74.5096L117.033 68.017H140.067Z" fill="#FAE0B2"/>
<path d="M109.139 79.5045C109.139 79.5045 109.211 80.0567 109.211 80.1504C109.211 80.2441 109.211 80.2441 109.211 80.2441L109.16 80.3392L109.139 80.377L109.511 80.8403C109.511 80.8403 111.002 80.8601 111.036 80.8601C111.069 80.8601 110.836 80.5398 110.836 80.5398C110.836 80.5398 110.342 80.2094 110.254 79.9779C110.165 79.746 110.329 79.2629 110.329 79.2629L109.139 79.5045" fill="#F7A491"/>
<path d="M101.949 76.2014C101.949 76.2014 101.418 76.4944 101.335 76.5525C101.253 76.611 101.253 76.611 101.253 76.611L101.201 76.7061L101.181 76.7439L100.542 76.7734C100.542 76.7734 99.5967 75.7469 99.5759 75.724C99.5552 75.7007 99.8477 75.7588 99.8477 75.7588C99.8477 75.7588 100.444 75.8305 100.703 75.7482C100.963 75.6659 101.487 75.2066 101.487 75.2066L101.949 76.2014" fill="#F7A491"/>
<path d="M106.777 71.0217L101.054 75.3544L101.936 76.4636C101.936 76.4636 107.552 73.3264 107.859 73.2895C108.167 73.2525 108.65 73.3493 108.709 73.5491C108.767 73.7484 108.946 79.6585 108.946 79.6585H110.474L111.271 72.1173L106.777 71.0217" fill="#B75742"/>
<path d="M115.022 64.8424C115.445 64.5955 116.44 63.6469 116.777 63.3239C116.78 63.2861 116.812 63.0665 117.083 62.788C117.275 62.5909 117.42 62.1416 117.545 62.2688C117.671 62.3964 117.359 62.7532 117.502 62.7554C117.644 62.7581 118.352 62.051 118.465 62.1663C118.579 62.282 117.861 62.9103 117.988 62.9125C118.116 62.9147 118.699 62.278 118.86 62.4413C119.021 62.6045 118.095 63.1334 118.182 63.221C118.268 63.3085 118.841 62.9618 118.971 63.0929C119.1 63.2245 118.162 63.5338 118.237 63.5351C118.312 63.5364 118.854 63.5232 118.858 63.6161C118.862 63.7208 117.488 63.8836 117.32 64.0649C116.961 64.5731 116.322 65.5015 115.674 65.9085C114.883 66.4066 113.052 67.4639 113.052 67.4639L112.143 66.4198C112.143 66.4198 114.52 65.135 115.022 64.8424" fill="#F7A491"/>
<path d="M117.502 62.9803C117.537 63.0419 117.552 63.1088 117.557 63.1765C117.554 63.1875 117.588 63.4058 117.379 63.5716C117.46 63.4366 117.55 63.2865 117.502 62.9803" fill="#F48C7F"/>
<path d="M106.632 63.7006C106.296 63.364 105.615 62.2169 105.385 61.827C105.393 61.7892 105.427 61.5701 105.247 61.2379C105.12 61.0034 105.113 60.5361 104.954 60.6298C104.795 60.7235 104.991 61.1406 104.852 61.1094C104.714 61.0786 104.239 60.232 104.096 60.317C103.952 60.4019 104.46 61.1754 104.337 61.1477C104.213 61.1204 103.837 60.3702 103.634 60.4903C103.431 60.6104 104.168 61.3364 104.059 61.4007C103.95 61.4654 103.499 60.9972 103.335 61.094C103.172 61.1908 103.986 61.7074 103.913 61.6911C103.841 61.6748 103.322 61.5366 103.291 61.6251C103.256 61.725 104.534 62.2015 104.643 62.4158C104.84 62.9895 105.184 64.0341 105.689 64.5775C106.307 65.2428 107.762 66.6882 107.762 66.6882L108.946 65.8918C108.946 65.8918 107.031 64.0996 106.632 63.7006" fill="#F7A491"/>
<path d="M104.786 61.3263C104.734 61.3778 104.7 61.439 104.675 61.5032C104.675 61.5142 104.578 61.717 104.732 61.926C104.692 61.7764 104.65 61.611 104.786 61.3263Z" fill="#F48C7F"/>
<path d="M107.592 64.471L106.524 65.71L107.85 67.4639C107.85 67.4639 107.725 68.7667 107.534 69.1733C107.343 69.5803 106.236 71.251 106.236 71.251C106.236 71.251 108.923 72.7148 111.551 72.5006C111.551 72.5006 112.292 69.1143 112.5 68.7892C112.708 68.4636 114.543 66.9891 114.543 66.9891L113.739 65.4544L112.059 66.2825C112.059 66.2825 108.988 65.8416 108.84 65.71C108.692 65.5785 107.592 64.471 107.592 64.471" fill="#F7CC7F"/>
<path d="M111.058 61.9375C111.058 61.9375 110.021 61.4495 109.666 62.2582C109.666 62.2582 108.735 62.1742 108.896 63.0318C108.896 63.0318 107.958 63.4506 108.552 64.5304C108.552 64.5304 108.291 65.5455 109.627 65.6097C109.627 65.6097 109.827 65.9696 110.437 65.8856C111.047 65.802 111.202 65.659 111.202 65.659C111.202 65.659 112.283 65.9402 112.611 65.0725C112.611 65.0725 113.354 64.9145 112.855 64.0671C112.855 64.0671 113.504 62.968 112.361 62.6375C112.361 62.6375 112.228 61.5138 111.058 61.9375" fill="#F47458"/>
<path d="M111.477 64.3188C111.392 64.5278 111.453 64.7381 111.612 64.7887C111.771 64.8397 111.968 64.7112 112.052 64.5022C112.136 64.2932 112.076 64.0825 111.917 64.0319C111.758 63.9813 111.561 64.1098 111.477 64.3188Z" fill="#F7A491"/>
<path d="M108.68 63.8057C108.668 64.0275 108.795 64.2132 108.964 64.2202C109.133 64.2272 109.279 64.053 109.291 63.8312C109.303 63.6095 109.175 63.4242 109.007 63.4172C108.838 63.4097 108.692 63.584 108.68 63.8057Z" fill="#F7A491"/>
<path d="M109.866 65.2744C109.866 65.289 109.731 65.8038 109.659 66.0757C109.633 66.1773 109.691 66.2812 109.797 66.3243C110.083 66.44 110.643 66.6015 111.03 66.2895C111.066 66.2609 111.085 66.22 111.083 66.1778L111.036 64.9493L109.866 65.2744" fill="#F7A491"/>
<path d="M109.794 65.5626C110.096 65.6977 110.475 65.7008 110.9 65.479C110.954 65.4509 111.005 65.421 111.053 65.3893L111.036 64.9493L109.866 65.2744C109.866 65.2815 109.834 65.4056 109.794 65.5626" fill="#F48C7F"/>
<path d="M110.695 62.4386C110.695 62.4386 111.206 62.5588 111.506 63.0001C111.806 63.4418 111.972 64.7183 110.9 65.2766C109.829 65.835 109.05 64.9704 109.07 64.1524C109.09 63.3345 109.499 62.2886 110.695 62.4386" fill="#F7A491"/>
<path d="M108.867 81.1796C108.639 81.154 109.033 80.4518 109.16 80.3392L110.836 80.5398C110.836 80.5398 111.643 80.8724 111.834 81.0427C111.879 81.0828 111.886 81.1536 111.689 81.1796C111.056 81.2632 109.373 81.2363 108.867 81.1796" fill="#F7CC7F"/>
<path d="M100.626 77.4431C100.823 77.5478 101.18 76.864 101.201 76.7061L99.8474 75.7588C99.8474 75.7588 98.803 75.4926 98.5926 75.6796C98.4011 75.8498 100.179 77.2042 100.626 77.4431Z" fill="#F7CC7F"/>
</svg>
