<svg width="60" height="60" viewBox="0 0 32 32" fill="none" xmlns="http://www.w3.org/2000/svg">
<path d="M6.66666 17.0128C6.66666 15.2025 6.66666 14.2973 7.0326 13.5017C7.39855 12.706 8.08581 12.1169 9.46033 10.9388L10.7937 9.79591C13.2781 7.66641 14.5203 6.60165 16 6.60165C17.4797 6.60165 18.7219 7.66641 21.2063 9.79591L22.5397 10.9388C23.9142 12.1169 24.6014 12.706 24.9674 13.5017C25.3333 14.2973 25.3333 15.2025 25.3333 17.0128V22.6667C25.3333 25.1808 25.3333 26.4379 24.5523 27.219C23.7712 28 22.5141 28 20 28H12C9.48583 28 8.22875 28 7.44771 27.219C6.66666 26.4379 6.66666 25.1808 6.66666 22.6667V17.0128Z" stroke="#FFC72A"/>
<path d="M19.3333 28V21C19.3333 20.4477 18.8856 20 18.3333 20H13.6667C13.1144 20 12.6667 20.4477 12.6667 21V28" stroke="#FFC72A" stroke-linecap="round" stroke-linejoin="round"/>
</svg>
