<svg width="32" height="32" viewBox="0 0 32 32" fill="none" xmlns="http://www.w3.org/2000/svg">
<path fill-rule="evenodd" clip-rule="evenodd" d="M0 6.15381H32V12.7179H0V6.15381ZM0 19.282H32V25.8461H0V19.282Z" fill="#2F2E41"/>
<path fill-rule="evenodd" clip-rule="evenodd" d="M0 0H32V6.4H0V0ZM0 12.8H32V19.2H0V12.8ZM0 25.6H32V32H0V25.6Z" fill="#FBC24C"/>
<path fill-rule="evenodd" clip-rule="evenodd" d="M2.46154 26.7989C3.14128 26.7989 3.69231 27.4122 3.69231 28.1687C3.69231 28.9252 3.14128 29.5384 2.46154 29.5384C1.78181 29.5384 1.23077 28.9252 1.23077 28.1687C1.23077 27.4122 1.78181 26.7989 2.46154 26.7989ZM2.46154 20.4069C3.14128 20.4069 3.69231 21.0201 3.69231 21.7766C3.69231 22.5331 3.14128 23.1463 2.46154 23.1463C1.78181 23.1463 1.23077 22.5331 1.23077 21.7766C1.23077 21.0201 1.78181 20.4069 2.46154 20.4069ZM2.46154 14.0148C3.14128 14.0148 3.69231 14.6281 3.69231 15.3846C3.69231 16.141 3.14128 16.7543 2.46154 16.7543C1.78181 16.7543 1.23077 16.141 1.23077 15.3846C1.23077 14.6281 1.78181 14.0148 2.46154 14.0148ZM2.46154 7.62277C3.14128 7.62277 3.69231 8.23602 3.69231 8.9925C3.69231 9.74898 3.14128 10.3622 2.46154 10.3622C1.78181 10.3622 1.23077 9.74898 1.23077 8.9925C1.23077 8.23602 1.78181 7.62277 2.46154 7.62277ZM2.46154 1.23071C3.14128 1.23071 3.69231 1.84396 3.69231 2.60044C3.69231 3.35692 3.14128 3.97017 2.46154 3.97017C1.78181 3.97017 1.23077 3.35692 1.23077 2.60044C1.23077 1.84396 1.78181 1.23071 2.46154 1.23071Z" fill="white"/>
</svg>
