<?xml version='1.0' encoding='iso-8859-1'?>
<svg version="1.1" xmlns="http://www.w3.org/2000/svg" viewBox="0 0 463 463" xmlns:xlink="http://www.w3.org/1999/xlink" enable-background="new 0 0 463 463">
  <g>
    <path d="M395.195,67.805C351.471,24.08,293.336,0,231.5,0S111.529,24.08,67.805,67.805S0,169.664,0,231.5   s24.08,119.971,67.805,163.695S169.664,463,231.5,463s119.971-24.08,163.695-67.805S463,293.336,463,231.5   S438.92,111.529,395.195,67.805z M384.589,384.589C343.697,425.48,289.329,448,231.5,448s-112.197-22.52-153.089-63.411   S15,289.329,15,231.5S37.52,119.303,78.411,78.411S173.671,15,231.5,15s112.197,22.52,153.089,63.411S448,173.671,448,231.5   S425.48,343.697,384.589,384.589z"/>
    <path d="m340.393,315.771c-3.14-2.699-7.875-2.346-10.577,0.794-23.749,27.604-57.917,43.435-93.745,43.435-61.154,0-112.19-45.329-122.968-105h190.397c4.143,0 7.5-3.357 7.5-7.5s-3.357-7.5-7.5-7.5h-192.219c-0.18-2.811-0.281-5.643-0.281-8.5s0.101-5.689 0.281-8.5h192.219c4.143,0 7.5-3.357 7.5-7.5s-3.357-7.5-7.5-7.5h-190.397c10.778-59.671 61.814-105 122.968-105 35.825,0 69.992,15.829 93.74,43.43 2.702,3.14 7.438,3.494 10.577,0.794 3.14-2.702 3.495-7.438 0.794-10.577-26.6-30.917-64.911-48.647-105.111-48.647-69.424,0-127.203,52.015-138.183,120h-10.388c-4.143,0-7.5,3.357-7.5,7.5s3.357,7.5 7.5,7.5h8.753c-0.161,2.813-0.253,5.646-0.253,8.5s0.091,5.687 0.253,8.5h-8.753c-4.143,0-7.5,3.357-7.5,7.5s3.357,7.5 7.5,7.5h10.389c10.979,67.985 68.759,120 138.183,120 40.201,0 78.515-17.732 105.115-48.651 2.701-3.141 2.345-7.876-0.794-10.578z"/>
  </g>
</svg>
