<svg width="28" height="28" viewBox="0 0 28 28" fill="none" xmlns="http://www.w3.org/2000/svg">
<path d="M14 28C6.2678 28 0 21.7322 0 14C0 6.2678 6.2678 0 14 0C21.7322 0 28 6.2678 28 14C28 21.7322 21.7322 28 14 28ZM14 25.2C16.9704 25.2 19.8192 24.02 21.9196 21.9196C24.02 19.8192 25.2 16.9704 25.2 14C25.2 11.0296 24.02 8.18081 21.9196 6.0804C19.8192 3.98 16.9704 2.8 14 2.8C11.0296 2.8 8.18081 3.98 6.0804 6.0804C3.98 8.18081 2.8 11.0296 2.8 14C2.8 16.9704 3.98 19.8192 6.0804 21.9196C8.18081 24.02 11.0296 25.2 14 25.2ZM11.27 12.6H18.2V15.4H11.27C11.3913 15.9955 11.6655 16.5491 12.0657 17.0064C12.4659 17.4637 12.9782 17.8089 13.5524 18.0081C14.1265 18.2073 14.7425 18.2536 15.34 18.1424C15.9374 18.0312 16.4956 17.7664 16.9596 17.374L19.3396 18.9602C18.5218 19.8505 17.4651 20.4867 16.2956 20.7929C15.1261 21.099 13.8932 21.0623 12.744 20.6869C11.5949 20.3116 10.5779 19.6136 9.81464 18.6761C9.05133 17.7387 8.57386 16.6014 8.4392 15.4H7V12.6H8.4378C8.572 11.398 9.04934 10.2601 9.81283 9.32204C10.5763 8.38403 11.5937 7.68561 12.7434 7.3102C13.8931 6.93478 15.1266 6.89824 16.2965 7.20495C17.4664 7.51165 18.5233 8.14862 19.341 9.0398L16.9596 10.626C16.4956 10.2336 15.9374 9.96879 15.34 9.8576C14.7425 9.74641 14.1265 9.79269 13.5524 9.99188C12.9782 10.1911 12.4659 10.5363 12.0657 10.9936C11.6655 11.4509 11.3913 12.0045 11.27 12.6Z" fill="#FBC24C"/>
</svg>
